<?xml version="1.0" encoding="UTF-8"?>
<svg width="242px" height="224px" viewBox="0 0 242 224" version="1.1" xmlns="http://www.w3.org/2000/svg" xmlns:xlink="http://www.w3.org/1999/xlink">
    <!-- Generator: Sketch 51.2 (57519) - http://www.bohemiancoding.com/sketch -->
    <title>Group 3</title>
    <desc>Created with Sketch.</desc>
    <defs></defs>
    <g id="Website-8/29/18" stroke="none" stroke-width="1" fill="none" fill-rule="evenodd">
        <g id="Homepage---Small" transform="translate(-67.000000, -120.000000)" fill="#FFFFFF">
            <g id="Group-3" transform="translate(67.000000, 120.000000)">
                <path d="M39,174.242219 L39,155.811908 C39,155.414973 39.2596501,155.198467 39.778958,155.162382 L44.897825,155.162382 C46.6412159,155.162382 48.0321985,155.622458 49.0708144,156.542625 C50.1094302,157.462792 50.6287304,158.915191 50.6287304,160.899865 L50.6287304,161.170501 C50.6287304,163.155175 50.1047936,164.612084 49.0569044,165.541272 C48.0090152,166.47046 46.6041228,166.935047 44.8421851,166.935047 L40.8361153,166.935047 L40.8361153,174.242219 C40.8361153,174.458729 40.7433832,174.63013 40.557916,174.756428 C40.3724489,174.882725 40.1591649,174.945873 39.9180577,174.945873 C39.6584037,174.945873 39.4404831,174.882725 39.2642893,174.756428 C39.0880956,174.63013 39,174.458729 39,174.242219 Z M40.8361153,165.392422 L44.8421851,165.392422 C46.1033616,165.392422 47.0770493,165.04962 47.7632777,164.364005 C48.449506,163.678391 48.7926151,162.640963 48.7926151,161.251691 L48.7926151,160.926928 C48.7926151,158.18447 47.4758183,156.813261 44.8421851,156.813261 L40.8361153,156.813261 L40.8361153,165.392422 Z M63.6762772,174.242219 L63.6762772,155.811908 C63.6762772,155.378888 63.9822933,155.162382 64.5943349,155.162382 C65.2063764,155.162382 65.5123925,155.378888 65.5123925,155.811908 L65.5123925,174.242219 C65.5123925,174.458729 65.4196603,174.63013 65.2341932,174.756428 C65.0487261,174.882725 64.8354421,174.945873 64.5943349,174.945873 C64.3346809,174.945873 64.1167603,174.882725 63.9405665,174.756428 C63.7643727,174.63013 63.6762772,174.458729 63.6762772,174.242219 Z M78.3095599,174.32341 C78.3095599,174.124943 78.3651992,173.917457 78.4764795,173.700947 L87.7405159,156.813261 L79.3388973,156.813261 C79.1348835,156.813261 78.9679656,156.732071 78.8381386,156.569689 C78.7083116,156.407306 78.6433991,156.208842 78.6433991,155.97429 C78.6433991,155.75778 78.703675,155.568336 78.8242286,155.405954 C78.9447823,155.243572 79.1163368,155.162382 79.3388973,155.162382 L89.4375316,155.162382 C89.9011994,155.162382 90.1330298,155.351825 90.1330298,155.730717 C90.1330298,155.947227 90.0588441,156.181776 89.9104704,156.434371 L80.6742539,173.294993 L89.7713708,173.294993 C89.9939313,173.294993 90.1654858,173.376183 90.2860395,173.538566 C90.4065931,173.700948 90.466869,173.890391 90.466869,174.106901 C90.466869,174.323411 90.4065931,174.517365 90.2860395,174.688769 C90.1654858,174.860172 89.9939313,174.945873 89.7713708,174.945873 L78.9772382,174.945873 C78.5321171,174.945873 78.3095599,174.738387 78.3095599,174.32341 Z M101.78958,174.32341 C101.78958,174.124943 101.845219,173.917457 101.9565,173.700947 L111.220536,156.813261 L102.818918,156.813261 C102.614904,156.813261 102.447986,156.732071 102.318159,156.569689 C102.188332,156.407306 102.123419,156.208842 102.123419,155.97429 C102.123419,155.75778 102.183695,155.568336 102.304249,155.405954 C102.424802,155.243572 102.596357,155.162382 102.818918,155.162382 L112.917552,155.162382 C113.38122,155.162382 113.61305,155.351825 113.61305,155.730717 C113.61305,155.947227 113.538864,156.181776 113.390491,156.434371 L104.154274,173.294993 L113.251391,173.294993 C113.473952,173.294993 113.645506,173.376183 113.76606,173.538566 C113.886613,173.700948 113.946889,173.890391 113.946889,174.106901 C113.946889,174.323411 113.886613,174.517365 113.76606,174.688769 C113.645506,174.860172 113.473952,174.945873 113.251391,174.945873 L102.457258,174.945873 C102.012137,174.945873 101.78958,174.738387 101.78958,174.32341 Z M126.716237,174.242219 L126.716237,155.838972 C126.716237,155.622462 126.799696,155.455571 126.966616,155.338295 C127.133536,155.221019 127.328274,155.162382 127.550835,155.162382 L137.454729,155.162382 C137.918397,155.162382 138.150228,155.423994 138.150228,155.947226 C138.150228,156.181778 138.089952,156.384753 137.969398,156.556157 C137.848844,156.727561 137.67729,156.813261 137.454729,156.813261 L128.552352,156.813261 L128.552352,164.255751 L132.920081,164.255751 C133.142641,164.255751 133.314196,164.33243 133.43475,164.485792 C133.555303,164.639153 133.615579,164.833107 133.615579,165.067659 C133.615579,165.554806 133.383749,165.798376 132.920081,165.798376 L128.552352,165.798376 L128.552352,173.294993 L137.454729,173.294993 C137.658743,173.294993 137.825661,173.376183 137.955488,173.538566 C138.085315,173.700948 138.150228,173.899412 138.150228,174.133965 C138.150228,174.67524 137.918397,174.945873 137.454729,174.945873 L127.550835,174.945873 C127.328274,174.945873 127.133536,174.882725 126.966616,174.756428 C126.799696,174.63013 126.716237,174.458729 126.716237,174.242219 Z M150.863935,174.242219 L150.863935,155.811908 C150.863935,155.414973 151.095766,155.198467 151.559433,155.162382 L156.483561,155.162382 C158.282592,155.162382 159.73385,155.577353 160.83738,156.407307 C161.940909,157.237262 162.492666,158.599449 162.492666,160.493911 C162.492666,163.488964 161.046044,165.230038 158.152757,165.717185 L162.437026,173.728011 C162.511213,173.818223 162.548306,173.935498 162.548306,174.079838 C162.548306,174.31439 162.437027,174.526386 162.214466,174.715832 C161.991906,174.905278 161.750802,175 161.491148,175 C161.157307,175 160.832745,174.684261 160.517451,174.052774 L156.233182,165.933694 L152.700051,165.933694 L152.700051,174.242219 C152.700051,174.458729 152.607318,174.63013 152.421851,174.756428 C152.236384,174.882725 152.0231,174.945873 151.781993,174.945873 C151.522339,174.945873 151.304418,174.882725 151.128225,174.756428 C150.952031,174.63013 150.863935,174.458729 150.863935,174.242219 Z M152.700051,164.391069 L156.483561,164.391069 C159.265568,164.391069 160.65655,163.119093 160.65655,160.575101 C160.65655,158.067195 159.265568,156.813261 156.483561,156.813261 L152.700051,156.813261 L152.700051,164.391069 Z M175.595852,174.242219 L175.595852,155.811908 C175.595852,155.378888 175.901868,155.162382 176.51391,155.162382 C177.125951,155.162382 177.431968,155.378888 177.431968,155.811908 L177.431968,174.242219 C177.431968,174.458729 177.339235,174.63013 177.153768,174.756428 C176.968301,174.882725 176.755017,174.945873 176.51391,174.945873 C176.254256,174.945873 176.036335,174.882725 175.860142,174.756428 C175.683948,174.63013 175.595852,174.458729 175.595852,174.242219 Z M190.145675,174.188092 C190.145675,174.09788 190.154948,174.034732 190.173495,173.998647 L195.98786,155.622463 C196.117687,155.207486 196.479343,155 197.072838,155 C197.666332,155 198.037261,155.207486 198.185635,155.622463 L203.97218,173.998647 C203.97218,174.016689 203.976817,174.043753 203.98609,174.079838 C203.995363,174.115923 204,174.142986 204,174.161028 C204,174.377538 203.879448,174.562471 203.638341,174.715832 C203.397234,174.869193 203.146857,174.945873 202.887203,174.945873 C202.534815,174.945873 202.302985,174.792514 202.191705,174.485792 L200.911988,170.317997 L193.205867,170.317997 L191.926151,174.485792 C191.851964,174.792514 191.61086,174.945873 191.202833,174.945873 C190.943179,174.945873 190.702075,174.873704 190.479514,174.729364 C190.256954,174.585024 190.145675,174.404602 190.145675,174.188092 Z M193.678806,168.775372 L200.439049,168.775372 L197.072838,157.868742 L193.678806,168.775372 Z" id="PIZZERIA"></path>
                <path d="M25.8913978,223.384615 C25.8191155,222.479217 25.6998515,221.824936 25.5336022,221.421751 C25.3673528,221.018566 25.1252107,220.816976 24.8071685,220.816976 C24.575865,220.816976 24.2722838,220.937222 23.8964158,221.177719 C23.0290279,221.771886 22.2230921,222.267018 21.4785842,222.66313 C20.7340763,223.059242 19.8811577,223.381077 18.9198029,223.628647 C17.958448,223.876217 16.8778435,224 15.677957,224 C12.5409043,224 9.79060322,223.377548 7.42697133,222.132626 C5.06333944,220.887704 3.23462415,219.080472 1.94077061,216.710875 C0.646917067,214.341279 0,211.522563 0,208.254642 C0,205.057455 0.664987376,202.228129 1.99498208,199.766578 C3.32497678,197.305027 5.18260456,195.395232 7.56792115,194.037135 C9.95323773,192.679038 12.6710122,192 15.7213262,192 C17.4850148,192 18.9920786,192.247566 20.2425627,192.742706 C21.4930469,193.237845 22.7109857,193.93103 23.8964158,194.822281 C24.2289144,195.076924 24.5180394,195.204244 24.7637993,195.204244 C25.3709708,195.204244 25.7468332,194.3413 25.8913978,192.615385 L26.9105735,192.615385 C26.7949218,194.581796 26.7370968,198.09016 26.7370968,203.140584 L25.7179211,203.140584 C25.5299871,201.683459 25.3239856,200.498678 25.0999104,199.586207 C24.8758352,198.673735 24.5505696,197.870914 24.1241039,197.177719 C23.6976383,196.484524 23.1157743,195.847925 22.3784946,195.267905 C21.641215,194.574709 20.7810682,194.047747 19.7980287,193.687003 C18.8149891,193.326258 17.7958237,193.145889 16.7405018,193.145889 C14.7021403,193.145889 13.0252157,193.832 11.7096774,195.204244 C10.3941392,196.576488 9.43279873,198.387257 8.82562724,200.636605 C8.21845575,202.885953 7.91487455,205.368687 7.91487455,208.084881 C7.91487455,210.801075 8.23291199,213.283808 8.86899642,215.533156 C9.50508084,217.782505 10.4989478,219.582663 11.8506272,220.933687 C13.2023066,222.284711 14.8900735,222.960212 16.9139785,222.960212 C17.9403874,222.960212 18.9450966,222.776306 19.9281362,222.408488 C20.9111758,222.04067 21.74241,221.510171 22.4218638,220.816976 C23.1735999,220.251102 23.762692,219.596821 24.1891577,218.854111 C24.6156234,218.111402 24.9336608,217.251994 25.1432796,216.275862 C25.3528983,215.29973 25.5444436,214.01946 25.7179211,212.435013 L26.7370968,212.435013 C26.7370968,217.683492 26.7949218,221.333323 26.9105735,223.384615 L25.8913978,223.384615 Z M42.7620072,205.050398 C42.7620072,203.847916 42.4692682,202.900092 41.8837814,202.206897 C41.2982946,201.513701 40.3839369,201.167109 39.140681,201.167109 C38.5624224,201.167109 37.9841725,201.255525 37.405914,201.432361 C36.8276554,201.609196 36.3505993,201.874446 35.9747312,202.228117 C36.7987496,202.496907 37.4420526,202.917769 37.9046595,203.490716 C38.3672664,204.063663 38.5985663,204.781605 38.5985663,205.644562 C38.5985663,206.23873 38.4503898,206.772765 38.1540323,207.246684 C37.8576747,207.720604 37.4348295,208.095489 36.8854839,208.371353 C36.3361382,208.647216 35.7072915,208.785146 34.9989247,208.785146 C34.0447981,208.785146 33.2822311,208.466847 32.7112007,207.830239 C32.1401704,207.193631 31.8546595,206.394346 31.8546595,205.432361 C31.8546595,203.932795 32.6786656,202.716185 34.3267025,201.782493 C36.1337605,200.806361 38.3889351,200.318302 41.0922939,200.318302 C44.1281514,200.318302 46.2893604,200.969047 47.5759857,202.270557 C48.1976136,202.878871 48.6168448,203.635716 48.8336918,204.541114 C49.0505387,205.446512 49.1589606,206.712636 49.1589606,208.339523 L49.1589606,220.159151 C49.1589606,220.866493 49.2276277,221.365162 49.3649642,221.655172 C49.5023006,221.945183 49.7444427,222.090186 50.0913978,222.090186 C50.5684612,222.090186 51.1177986,221.84262 51.7394265,221.34748 L52.1948029,222.090186 C51.5153491,222.641913 50.7780804,223.045092 49.9829749,223.299735 C49.1878694,223.554378 48.2337571,223.681698 47.1206093,223.681698 C45.617137,223.681698 44.5329185,223.356325 43.8679211,222.70557 C43.2029238,222.054815 42.8704301,221.206018 42.8704301,220.159151 C42.1476069,221.333339 41.2007227,222.213967 40.0297491,222.801061 C38.8587755,223.388155 37.6083101,223.681698 36.2783154,223.681698 C34.5869091,223.681698 33.2316359,223.246689 32.2124552,222.376658 C31.1932745,221.506627 30.6836918,220.293553 30.6836918,218.737401 C30.6836918,217.223688 31.1896604,215.971711 32.2016129,214.981432 C33.2135654,213.991153 34.7820682,213.114062 36.9071685,212.350133 C37.1384719,212.265252 37.8901967,211.985856 39.1623656,211.511936 C40.4345344,211.038017 41.3525061,210.553495 41.9163082,210.058355 C42.4801103,209.563216 42.7620072,209.018571 42.7620072,208.424403 L42.7620072,205.050398 Z M42.7620072,210.206897 C42.5740731,210.518127 42.2668779,210.839963 41.8404122,211.172414 C41.4139465,211.504865 40.80317,211.91158 40.0080645,212.392573 C39.0683943,213.029181 38.3311257,213.747122 37.7962366,214.546419 C37.2613474,215.345716 36.9939068,216.339517 36.9939068,217.527851 C36.9939068,218.659599 37.2468911,219.50486 37.7528674,220.06366 C38.2588436,220.622461 38.923831,220.901857 39.7478495,220.901857 C40.9188231,220.901857 41.9235322,220.307698 42.7620072,219.119363 L42.7620072,210.206897 Z M55.555914,215.002653 C55.8450433,217.506644 56.470276,219.465952 57.4316308,220.880637 C58.3929857,222.295321 59.755487,223.002653 61.5191756,223.002653 C62.3865635,223.002653 63.1274462,222.744476 63.7418459,222.228117 C64.3562456,221.711757 64.6634409,220.937229 64.6634409,219.904509 C64.6634409,219.098139 64.4791237,218.376661 64.1104839,217.740053 C63.741844,217.103445 63.2756301,216.53758 62.711828,216.04244 C62.1480259,215.547301 61.3023354,214.868262 60.1747312,214.005305 C58.8013671,212.915998 57.7713595,212.060127 57.0846774,211.437666 C56.3979954,210.815205 55.8089033,210.076043 55.3173835,209.220159 C54.8258637,208.364275 54.5801075,207.391694 54.5801075,206.302387 C54.5801075,205.057465 54.9270575,203.982321 55.6209677,203.076923 C56.314878,202.171525 57.247306,201.485413 58.4182796,201.018568 C59.5892532,200.551722 60.8614029,200.318302 62.234767,200.318302 C63.3623712,200.318302 64.3959929,200.452695 65.3356631,200.721485 C66.2753333,200.990275 67.0126019,201.301501 67.547491,201.655172 C67.8366203,201.853228 68.0968328,201.952255 68.3281362,201.952255 C68.8774818,201.952255 69.2244318,201.421756 69.3689964,200.360743 L70.3448029,200.360743 C70.2291512,201.817868 70.1713262,204.364261 70.1713262,208 L69.1955197,208 C68.9353034,206.104323 68.3534394,204.50929 67.4499104,203.214854 C66.5463814,201.920418 65.2344769,201.27321 63.5141577,201.27321 C62.6323134,201.27321 61.909501,201.520776 61.3456989,202.015915 C60.7818968,202.511055 60.5,203.190093 60.5,204.05305 C60.5,205.029183 60.8324937,205.870907 61.497491,206.578249 C62.1624884,207.285592 62.9648101,207.96463 63.9044803,208.615385 C64.8441505,209.266139 65.5308222,209.754198 65.9645161,210.079576 C67.1788591,210.970827 68.1438136,211.748891 68.8594086,212.413793 C69.5750036,213.078695 70.1568675,213.832003 70.6050179,214.67374 C71.0531683,215.515477 71.2772401,216.480985 71.2772401,217.570292 C71.2772401,218.843508 70.8977637,219.968165 70.1387993,220.944297 C69.3798349,221.920429 68.3570554,222.673737 67.0704301,223.204244 C65.7838048,223.734751 64.3743207,224 62.8419355,224 C61.2661809,224 59.8928374,223.695847 58.7218638,223.087533 C57.8400195,222.648981 57.1461196,222.344828 56.6401434,222.175066 C56.5534046,222.146773 56.4811233,222.132626 56.4232975,222.132626 C55.9462342,222.132626 55.5992842,222.648978 55.3824373,223.681698 L54.4066308,223.681698 C54.5222825,222.026517 54.5801075,219.133531 54.5801075,215.002653 L55.555914,215.002653 Z M86.2829749,205.050398 C86.2829749,203.847916 85.9902359,202.900092 85.4047491,202.206897 C84.8192623,201.513701 83.9049047,201.167109 82.6616487,201.167109 C82.0833902,201.167109 81.5051403,201.255525 80.9268817,201.432361 C80.3486232,201.609196 79.871567,201.874446 79.4956989,202.228117 C80.3197174,202.496907 80.9630204,202.917769 81.4256272,203.490716 C81.8882341,204.063663 82.1195341,204.781605 82.1195341,205.644562 C82.1195341,206.23873 81.9713575,206.772765 81.675,207.246684 C81.3786425,207.720604 80.9557973,208.095489 80.4064516,208.371353 C79.857106,208.647216 79.2282592,208.785146 78.5198925,208.785146 C77.5657658,208.785146 76.8031988,208.466847 76.2321685,207.830239 C75.6611381,207.193631 75.3756272,206.394346 75.3756272,205.432361 C75.3756272,203.932795 76.1996333,202.716185 77.8476703,201.782493 C79.6547283,200.806361 81.9099029,200.318302 84.6132616,200.318302 C87.6491191,200.318302 89.8103281,200.969047 91.0969534,202.270557 C91.7185814,202.878871 92.1378125,203.635716 92.3546595,204.541114 C92.5715065,205.446512 92.6799283,206.712636 92.6799283,208.339523 L92.6799283,220.159151 C92.6799283,220.866493 92.7485955,221.365162 92.8859319,221.655172 C93.0232683,221.945183 93.2654105,222.090186 93.6123656,222.090186 C94.0894289,222.090186 94.6387663,221.84262 95.2603943,221.34748 L95.7157706,222.090186 C95.0363168,222.641913 94.2990482,223.045092 93.5039427,223.299735 C92.7088371,223.554378 91.7547248,223.681698 90.6415771,223.681698 C89.1381048,223.681698 88.0538862,223.356325 87.3888889,222.70557 C86.7238915,222.054815 86.3913978,221.206018 86.3913978,220.159151 C85.6685746,221.333339 84.7216904,222.213967 83.5507168,222.801061 C82.3797432,223.388155 81.1292779,223.681698 79.7992832,223.681698 C78.1078768,223.681698 76.7526037,223.246689 75.7334229,222.376658 C74.7142422,221.506627 74.2046595,220.293553 74.2046595,218.737401 C74.2046595,217.223688 74.7106282,215.971711 75.7225806,214.981432 C76.7345331,213.991153 78.303036,213.114062 80.4281362,212.350133 C80.6594396,212.265252 81.4111645,211.985856 82.6833333,211.511936 C83.9555022,211.038017 84.8734739,210.553495 85.437276,210.058355 C86.0010781,209.563216 86.2829749,209.018571 86.2829749,208.424403 L86.2829749,205.050398 Z M86.2829749,210.206897 C86.0950409,210.518127 85.7878456,210.839963 85.3613799,211.172414 C84.9349142,211.504865 84.3241378,211.91158 83.5290323,212.392573 C82.5893621,213.029181 81.8520935,213.747122 81.3172043,214.546419 C80.7823151,215.345716 80.5148746,216.339517 80.5148746,217.527851 C80.5148746,218.659599 80.7678589,219.50486 81.2738351,220.06366 C81.7798114,220.622461 82.4447987,220.901857 83.2688172,220.901857 C84.4397908,220.901857 85.4445,220.307698 86.2829749,219.119363 L86.2829749,210.206897 Z M136.829749,193.485411 C135.861166,193.612733 135.149196,193.856762 134.693817,194.217507 C134.238439,194.578251 133.927629,195.12997 133.76138,195.872679 C133.595131,196.615388 133.512007,197.729436 133.512007,199.214854 L133.512007,223.469496 C133.29516,223.455349 132.933754,223.448276 132.427778,223.448276 C131.907345,223.448276 131.509798,223.455349 131.235125,223.469496 L111.957527,199.575597 L111.957527,216.254642 C111.957527,217.96641 112.051492,219.221924 112.239427,220.02122 C112.427361,220.820517 112.814065,221.404065 113.399552,221.771883 C113.985039,222.139701 114.942765,222.387267 116.27276,222.514589 L116.27276,223.384615 C115.130699,223.299734 113.533284,223.257294 111.480466,223.257294 C109.846886,223.257294 108.560279,223.299734 107.620609,223.384615 L107.620609,222.514589 C108.589192,222.387267 109.301163,222.143238 109.756541,221.782493 C110.21192,221.421749 110.522729,220.87003 110.688978,220.127321 C110.855228,219.384612 110.938351,218.270564 110.938351,216.785146 L110.938351,197.220159 C110.938351,196.130852 110.855228,195.338641 110.688978,194.843501 C110.522729,194.348362 110.215534,194.008843 109.767384,193.824934 C109.319233,193.641025 108.603649,193.527852 107.620609,193.485411 L107.620609,192.615385 C108.560279,192.700266 109.846886,192.742706 111.480466,192.742706 C112.969482,192.742706 114.241632,192.700266 115.296953,192.615385 L132.492832,213.34748 L132.492832,199.745358 C132.492832,198.03359 132.398866,196.778076 132.210932,195.97878 C132.022998,195.179483 131.636293,194.595935 131.050806,194.228117 C130.46532,193.860299 129.507593,193.612733 128.177599,193.485411 L128.177599,192.615385 C129.319659,192.700266 130.917075,192.742706 132.969892,192.742706 C134.617929,192.742706 135.904535,192.700266 136.829749,192.615385 L136.829749,193.485411 Z M149.775448,200.318302 C153.158261,200.318302 155.814596,201.266127 157.744534,203.161804 C159.674472,205.057481 160.639427,208.06364 160.639427,212.180371 C160.639427,216.282956 159.674472,219.278505 157.744534,221.167109 C155.814596,223.055712 153.158261,224 149.775448,224 C146.392635,224 143.732686,223.055712 141.79552,221.167109 C139.858354,219.278505 138.889785,216.282956 138.889785,212.180371 C138.889785,208.077787 139.858354,205.075164 141.79552,203.172414 C143.732686,201.269663 146.392635,200.318302 149.775448,200.318302 Z M149.775448,201.167109 C148.503279,201.167109 147.487728,202.072493 146.728763,203.883289 C145.969799,205.694085 145.590323,208.459752 145.590323,212.180371 C145.590323,215.886844 145.969799,218.638364 146.728763,220.435013 C147.487728,222.231662 148.503279,223.129973 149.775448,223.129973 C151.062073,223.129973 152.077625,222.235199 152.822133,220.445623 C153.566641,218.656048 153.938889,215.900991 153.938889,212.180371 C153.938889,208.445605 153.566641,205.676402 152.822133,203.872679 C152.077625,202.068956 151.062073,201.167109 149.775448,201.167109 Z M165.47509,215.002653 C165.764219,217.506644 166.389452,219.465952 167.350806,220.880637 C168.312161,222.295321 169.674663,223.002653 171.438351,223.002653 C172.305739,223.002653 173.046622,222.744476 173.661022,222.228117 C174.275421,221.711757 174.582616,220.937229 174.582616,219.904509 C174.582616,219.098139 174.398299,218.376661 174.029659,217.740053 C173.66102,217.103445 173.194806,216.53758 172.631004,216.04244 C172.067201,215.547301 171.221511,214.868262 170.093907,214.005305 C168.720543,212.915998 167.690535,212.060127 167.003853,211.437666 C166.317171,210.815205 165.728079,210.076043 165.236559,209.220159 C164.745039,208.364275 164.499283,207.391694 164.499283,206.302387 C164.499283,205.057465 164.846233,203.982321 165.540143,203.076923 C166.234054,202.171525 167.166482,201.485413 168.337455,201.018568 C169.508429,200.551722 170.780579,200.318302 172.153943,200.318302 C173.281547,200.318302 174.315169,200.452695 175.254839,200.721485 C176.194509,200.990275 176.931777,201.301501 177.466667,201.655172 C177.755796,201.853228 178.016008,201.952255 178.247312,201.952255 C178.796657,201.952255 179.143607,201.421756 179.288172,200.360743 L180.263978,200.360743 C180.148327,201.817868 180.090502,204.364261 180.090502,208 L179.114695,208 C178.854479,206.104323 178.272615,204.50929 177.369086,203.214854 C176.465557,201.920418 175.153653,201.27321 173.433333,201.27321 C172.551489,201.27321 171.828677,201.520776 171.264875,202.015915 C170.701072,202.511055 170.419176,203.190093 170.419176,204.05305 C170.419176,205.029183 170.751669,205.870907 171.416667,206.578249 C172.081664,207.285592 172.883986,207.96463 173.823656,208.615385 C174.763326,209.266139 175.449998,209.754198 175.883692,210.079576 C177.098035,210.970827 178.062989,211.748891 178.778584,212.413793 C179.494179,213.078695 180.076043,213.832003 180.524194,214.67374 C180.972344,215.515477 181.196416,216.480985 181.196416,217.570292 C181.196416,218.843508 180.816939,219.968165 180.057975,220.944297 C179.299011,221.920429 178.276231,222.673737 176.989606,223.204244 C175.70298,223.734751 174.293496,224 172.761111,224 C171.185357,224 169.812013,223.695847 168.641039,223.087533 C167.759195,222.648981 167.065295,222.344828 166.559319,222.175066 C166.47258,222.146773 166.400299,222.132626 166.342473,222.132626 C165.86541,222.132626 165.51846,222.648978 165.301613,223.681698 L164.325806,223.681698 C164.441458,222.026517 164.499283,219.133531 164.499283,215.002653 L165.47509,215.002653 Z M198.197133,200.954907 L198.197133,201.824934 L192.949462,201.824934 L192.949462,219.352785 C192.949462,220.215743 193.108481,220.827584 193.426523,221.188329 C193.744566,221.549073 194.236078,221.729443 194.901075,221.729443 C196.158788,221.729443 197.163497,220.859425 197.915233,219.119363 L198.674194,219.522546 C197.561046,222.50753 195.537171,224 192.602509,224 C190.650886,224 189.169121,223.504868 188.157168,222.514589 C187.535541,221.920421 187.112695,221.167113 186.88862,220.254642 C186.664545,219.342171 186.552509,218.079584 186.552509,216.466844 L186.552509,201.824934 L182.82276,201.824934 L182.82276,200.954907 L186.552509,200.954907 L186.552509,195.183024 C188.995651,195.183024 191.127948,194.716185 192.949462,193.782493 L192.949462,200.954907 L198.197133,200.954907 Z M208.779211,204.477454 C209.343014,203.246678 210.156177,202.245804 211.218728,201.474801 C212.281278,200.703798 213.48476,200.318302 214.829211,200.318302 C215.725512,200.318302 216.477237,200.509282 217.084409,200.891247 C217.69158,201.273211 218.139724,201.764807 218.428853,202.366048 C218.717982,202.967289 218.862545,203.614497 218.862545,204.307692 C218.862545,205.382852 218.544507,206.259944 217.908423,206.938992 C217.272339,207.618041 216.433876,207.95756 215.393011,207.95756 C214.381058,207.95756 213.582351,207.706457 212.996864,207.204244 C212.411377,206.702031 212.118638,206.026529 212.118638,205.177719 C212.118638,203.791328 212.769169,202.659598 214.070251,201.782493 C213.882317,201.740053 213.701614,201.718833 213.528136,201.718833 C213.325746,201.718833 213.094446,201.754199 212.834229,201.824934 C212.082493,201.938108 211.395822,202.288238 210.774194,202.875332 C210.152566,203.462426 209.664667,204.16622 209.310484,204.986737 C208.9563,205.807254 208.779211,206.606539 208.779211,207.384615 L208.779211,218.907162 C208.779211,220.251112 209.111705,221.181253 209.776703,221.697613 C210.4417,222.213973 211.504234,222.472149 212.964337,222.472149 L212.964337,223.384615 C209.263482,223.271441 206.907114,223.214854 205.895161,223.214854 C204.955491,223.214854 202.837651,223.271441 199.541577,223.384615 L199.541577,222.472149 C200.249944,222.472149 200.810123,222.380195 201.222133,222.196286 C201.634142,222.012378 201.930495,221.694078 202.111201,221.241379 C202.291907,220.78868 202.382258,220.159155 202.382258,219.352785 L202.382258,205.644562 C202.382258,204.300612 202.172642,203.328031 201.753405,202.72679 C201.334168,202.12555 200.596899,201.824934 199.541577,201.824934 L199.541577,200.912467 C200.481247,200.997348 201.399219,201.039788 202.29552,201.039788 C204.91214,201.039788 207.073349,200.841735 208.779211,200.445623 L208.779211,204.477454 Z M232.567204,205.050398 C232.567204,203.847916 232.274465,202.900092 231.688978,202.206897 C231.103492,201.513701 230.189134,201.167109 228.945878,201.167109 C228.36762,201.167109 227.78937,201.255525 227.211111,201.432361 C226.632853,201.609196 226.155796,201.874446 225.779928,202.228117 C226.603947,202.496907 227.24725,202.917769 227.709857,203.490716 C228.172463,204.063663 228.403763,204.781605 228.403763,205.644562 C228.403763,206.23873 228.255587,206.772765 227.959229,207.246684 C227.662872,207.720604 227.240027,208.095489 226.690681,208.371353 C226.141335,208.647216 225.512489,208.785146 224.804122,208.785146 C223.849995,208.785146 223.087428,208.466847 222.516398,207.830239 C221.945368,207.193631 221.659857,206.394346 221.659857,205.432361 C221.659857,203.932795 222.483863,202.716185 224.1319,201.782493 C225.938958,200.806361 228.194132,200.318302 230.897491,200.318302 C233.933349,200.318302 236.094557,200.969047 237.381183,202.270557 C238.002811,202.878871 238.422042,203.635716 238.638889,204.541114 C238.855736,205.446512 238.964158,206.712636 238.964158,208.339523 L238.964158,220.159151 C238.964158,220.866493 239.032825,221.365162 239.170161,221.655172 C239.307498,221.945183 239.54964,222.090186 239.896595,222.090186 C240.373658,222.090186 240.922996,221.84262 241.544624,221.34748 L242,222.090186 C241.320546,222.641913 240.583278,223.045092 239.788172,223.299735 C238.993067,223.554378 238.038954,223.681698 236.925806,223.681698 C235.422334,223.681698 234.338116,223.356325 233.673118,222.70557 C233.008121,222.054815 232.675627,221.206018 232.675627,220.159151 C231.952804,221.333339 231.00592,222.213967 229.834946,222.801061 C228.663973,223.388155 227.413507,223.681698 226.083513,223.681698 C224.392106,223.681698 223.036833,223.246689 222.017652,222.376658 C220.998472,221.506627 220.488889,220.293553 220.488889,218.737401 C220.488889,217.223688 220.994858,215.971711 222.00681,214.981432 C223.018763,213.991153 224.587265,213.114062 226.712366,212.350133 C226.943669,212.265252 227.695394,211.985856 228.967563,211.511936 C230.239732,211.038017 231.157703,210.553495 231.721505,210.058355 C232.285307,209.563216 232.567204,209.018571 232.567204,208.424403 L232.567204,205.050398 Z M232.567204,210.206897 C232.37927,210.518127 232.072075,210.839963 231.645609,211.172414 C231.219144,211.504865 230.608367,211.91158 229.813262,212.392573 C228.873591,213.029181 228.136323,213.747122 227.601434,214.546419 C227.066545,215.345716 226.799104,216.339517 226.799104,217.527851 C226.799104,218.659599 227.052088,219.50486 227.558065,220.06366 C228.064041,220.622461 228.729028,220.901857 229.553047,220.901857 C230.72402,220.901857 231.728729,220.307698 232.567204,219.119363 L232.567204,210.206897 Z" id="Casa-Nostra"></path>
                <g id="Group" transform="translate(42.000000, 0.000000)">
                    <path d="M107.771207,139.099711 C120.963039,115.847304 109.181651,101.769213 108.289533,100.758046 L97.8842556,88.3032624 C92.4357445,82.0619961 98.0415254,72.2505657 98.0991171,72.1523348 L99.9160259,69.0300367 L96.3154344,68.8174807 C96.0307983,68.8008314 95.7528074,68.7925068 95.4792466,68.7925068 C89.5295765,68.7925068 86.1632284,72.4897606 84.5622887,75.0021394 C84.3058947,74.7324208 84.077189,74.4072045 83.870634,74.0226058 C81.0259341,68.7325693 84.0638986,55.8765375 85.4748963,51.369018 L88.0454816,43.1542551 L71.5725818,58.9128142 C57.1990117,72.2500107 55.1788706,87.530735 56.0189348,97.9964828 C56.5499971,104.606808 58.2328943,110.108291 59.570241,113.595764 C54.911955,110.154909 51.1308356,97.9992577 49.8593871,91.6292368 L48.4506044,84.5716001 L45.6479909,91.1980201 C40.3235235,103.785443 36.3020692,121.96925 45.901616,139.099711 L2.29192987,139.099711 L2.29192987,116.123127 L18.1512561,116.123127 L18.2265684,113.980917 C18.9220995,94.2015532 29.3467587,76.0948882 46.1120474,65.5464489 L47.1492526,64.8937965 L47.1492526,47.6789789 L53.9888258,37.9818736 L53.9888258,2.42397108 L100.249393,2.42397108 L100.249393,37.5967199 L107.360866,47.6789789 L107.360866,64.3465896 L108.431851,64.9942473 C125.746476,75.4638799 136.507826,93.7764411 137.218309,113.980917 L137.293621,116.123127 L152.750913,116.123127 L152.750913,139.099711 L107.771207,139.099711 Z" id="Fill-27"></path>
                    <path d="M100.453014,0.203787389 L53.7854273,0.203787389 C52.6790013,0.203787389 51.7735926,1.11117405 51.7735926,2.2200172 L51.7735926,37.2767759 L44.9345732,46.9733262 L44.9345732,63.6664659 C28.120553,74.2448739 16.7578128,92.7200433 16.0129965,113.902943 L2.08853134,113.902943 C0.977675216,113.902943 0.0766966964,114.805335 0.0766966964,115.918618 L0.0766966964,139.303665 C0.0766966964,140.416948 0.977675216,141.31934 2.08853134,141.31934 L49.8774953,141.31934 C43.0440134,131.245405 37.9576657,115.067284 47.6873477,92.064061 C47.6873477,92.064061 52.6131031,116.743868 62.0526113,116.743868 C62.4629524,116.743868 62.8816001,116.69725 63.309108,116.600129 C63.309108,116.600129 46.492319,85.2101006 73.1024732,60.5186389 L83.3615562,50.7038786 C83.3615562,50.7038786 75.6669671,75.2399468 85.4597785,78.0442434 C85.4597785,78.0442434 88.0912781,71.0126905 95.4790805,71.0126905 C95.7100012,71.0126905 95.9447983,71.0199052 96.1856869,71.0337796 C96.1856869,71.0337796 89.6567768,82.2504106 96.1856869,89.7281647 L106.613115,102.210142 C106.613115,102.210142 119.773382,116.790486 103.825453,141.31934 L152.954533,141.31934 C154.065389,141.31934 154.965813,140.416948 154.965813,139.303665 L154.965813,115.918618 C154.965813,114.805335 154.065389,113.902943 152.954533,113.902943 L139.432102,113.902943 C138.673442,92.3304497 126.901468,73.5689125 109.576321,63.0931751 L109.576321,46.9733262 L102.464294,36.8905122 L102.464294,2.2200172 C102.464294,1.11117405 101.55944,0.203787389 100.453014,0.203787389 M98.0341603,4.64359979 L98.0341603,36.8905122 L98.0341603,38.3012626 L98.8470899,39.453394 L105.146187,48.3840766 L105.146187,63.0931751 L105.146187,65.6000042 L107.287603,66.8947645 C123.959305,76.9753585 134.320835,94.6075185 135.004737,114.058892 L135.155361,118.342756 L139.432102,118.342756 L150.535679,118.342756 L150.535679,136.879527 L111.433655,136.879527 C116.64017,126.144616 116.659552,117.470332 115.549249,111.72244 C114.125515,104.353462 110.641768,100.081807 109.972264,99.3148296 L99.5824922,86.8778051 L99.5514812,86.8400667 L99.5193628,86.8039932 C95.1938906,81.8497176 99.972344,73.3408171 100.012215,73.27089 L103.64714,67.0262939 L96.4459572,66.6017368 C96.1231112,66.5823127 95.7974964,66.5728781 95.4790805,66.5728781 C90.9326554,66.5728781 87.5153607,68.4620182 85.1319485,70.7751605 C84.3068361,65.9513043 85.9027919,57.4313043 87.5879041,52.0358223 L92.745134,35.5896472 L80.3025486,47.4927843 L70.0678314,57.2836806 C55.1294192,71.1597592 52.957546,87.0331985 53.7959489,97.9778911 C52.6424527,94.2062705 52.0394007,91.2338161 52.031648,91.1933028 L49.2146364,77.0791391 L43.6088555,90.3314242 C34.9994437,110.684079 37.3485223,126.16515 42.2925519,136.879527 L4.50683078,136.879527 L4.50683078,118.342756 L16.0129965,118.342756 L20.2897372,118.342756 L20.4403618,114.058892 C21.1098658,95.0159812 31.1474421,77.5830578 47.2897432,67.426432 L49.3647072,66.1205722 L49.3647072,63.6664659 L49.3647072,48.3840766 L55.3913509,39.8396576 L56.2037267,38.6875263 L56.2037267,37.2767759 L56.2037267,4.64359979 L98.0341603,4.64359979" id="Fill-29"></path>
                </g>
            </g>
        </g>
    </g>
</svg>