<?xml version="1.0" encoding="UTF-8"?>
<svg width="358px" height="88px" viewBox="0 0 358 88" version="1.1" xmlns="http://www.w3.org/2000/svg" xmlns:xlink="http://www.w3.org/1999/xlink">
    <!-- Generator: Sketch 51.3 (57544) - http://www.bohemiancoding.com/sketch -->
    <title>Group 4</title>
    <desc>Created with Sketch.</desc>
    <defs></defs>
    <g id="Website-8/29/18" stroke="none" stroke-width="1" fill="none" fill-rule="evenodd">
        <g id="Menu" transform="translate(-541.000000, -682.000000)">
            <g id="Group-18" transform="translate(135.000000, 682.000000)">
                <g id="Group-4" transform="translate(406.000000, 0.000000)">
                    <g id="Group">
                        <path d="M67.5341198,86.4956141 C75.8006947,72.0366965 68.4179653,63.2825945 67.8589252,62.6538259 L61.3385264,54.9091357 C57.9242527,51.0281631 61.4370785,44.9271749 61.473168,44.8660925 L62.6117219,42.924571 L60.3554349,42.7923984 C60.1770695,42.7820455 60.0028684,42.776869 59.8314433,42.776869 C56.1031216,42.776869 53.9936216,45.0759122 52.9904032,46.638171 C52.8297356,46.4704533 52.6864187,46.2682259 52.5569824,46.0290729 C50.7743699,42.7395984 52.6780904,34.7454024 53.5622828,31.9425161 L55.1731232,26.8343749 L44.8504887,36.6334337 C35.8433853,44.9268298 34.5774771,54.4287592 35.1038978,60.936618 C35.4366846,65.0470808 36.491261,68.4680376 37.3293006,70.6366337 C34.4102162,68.4970259 32.0408026,60.9383435 31.2440577,56.9773082 L30.3612533,52.5886965 L28.6050139,56.7091671 C25.2684713,64.5363357 22.7484535,75.8434729 28.7639465,86.4956141 L1.43622281,86.4956141 L1.43622281,72.2082102 L11.3743655,72.2082102 L11.4215595,70.8761318 C11.8574094,58.5768376 18.3899538,47.317669 28.8958119,40.7583906 L29.5457697,40.3525553 L29.5457697,29.6479592 L33.8317434,23.6180612 L33.8317434,1.50728471 L62.8206245,1.50728471 L62.8206245,23.3785631 L67.2769822,29.6479592 L67.2769822,40.0122886 L67.9481079,40.415018 C78.7982042,46.9252925 85.5417333,58.3124925 85.9869526,70.8761318 L86.0341466,72.2082102 L95.7203569,72.2082102 L95.7203569,86.4956141 L67.5341198,86.4956141 Z" id="Fill-27" fill="#000000"></path>
                        <path d="M62.9482217,0.12672 L33.704285,0.12672 C33.0109505,0.12672 32.4435821,0.690955294 32.4435821,1.38046118 L32.4435821,23.1796141 L28.1579554,29.2091671 L28.1579554,39.589371 C17.62156,46.1672847 10.5011734,57.6555984 10.0344392,70.8276455 L1.30876446,70.8276455 C0.612653758,70.8276455 0.0480614814,71.3887749 0.0480614814,72.0810416 L0.0480614814,86.6224376 C0.0480614814,87.3147043 0.612653758,87.8758337 1.30876446,87.8758337 L31.2554051,87.8758337 C26.9732485,81.6116141 23.7859221,71.5516612 29.8829635,57.2476925 C29.8829635,57.2476925 32.9696557,72.5942024 38.8848616,72.5942024 C39.1419992,72.5942024 39.404342,72.5652141 39.6722371,72.504822 C39.6722371,72.504822 29.1341066,52.9857318 45.8091851,37.6319749 L52.2379721,31.5289161 C52.2379721,31.5289161 47.4162083,46.7860455 53.5528093,48.5298259 C53.5528093,48.5298259 55.2018213,44.1574337 59.8313392,44.1574337 C59.9760441,44.1574337 60.1231782,44.16192 60.2741294,44.1705475 C60.2741294,44.1705475 56.1828308,51.1453239 60.2741294,55.7951749 L66.8084088,63.5567749 C66.8084088,63.5567749 75.0552038,72.6231906 65.0615388,87.8758337 L95.847954,87.8758337 C96.5440647,87.8758337 97.10831,87.3147043 97.10831,86.6224376 L97.10831,72.0810416 C97.10831,71.3887749 96.5440647,70.8276455 95.847954,70.8276455 L87.3742117,70.8276455 C86.8988021,57.4133396 79.521972,45.7469553 68.6652824,39.2328847 L68.6652824,29.2091671 L64.2085776,22.9394259 L64.2085776,1.38046118 C64.2085776,0.690955294 63.6415563,0.12672 62.9482217,0.12672 M61.4324632,2.88750431 L61.4324632,22.9394259 L61.4324632,23.8166651 L61.9418802,24.5330886 L65.8891679,30.0864063 L65.8891679,39.2328847 L65.8891679,40.7916925 L67.2310723,41.5968063 C77.678285,47.8651671 84.1712697,58.8292769 84.5998323,70.924618 L84.6942202,73.5884298 L87.3742117,73.5884298 L94.3321956,73.5884298 L94.3321956,85.1150494 L69.8291684,85.1150494 C73.0917969,78.439818 73.1039424,73.0459357 72.4081787,69.4717553 C71.5160049,64.8895435 69.3329379,62.2333239 68.9133976,61.7563984 L62.4027152,54.0227514 L62.3832824,53.9992847 L62.3631556,53.9768533 C59.6526268,50.8961631 62.6470133,45.60512 62.6719983,45.5616376 L64.9498002,41.6785945 L60.4372262,41.4145945 C60.2349168,41.4025161 60.0308724,41.3966494 59.8313392,41.3966494 C56.9823517,41.3966494 54.8409264,42.5713631 53.3473769,44.0097318 C52.8303255,41.0101396 53.8304208,35.7121945 54.8863853,32.3571514 L58.1181296,22.1305161 L50.3210651,29.5321788 L43.9075467,35.6203984 C34.5464888,44.2488847 33.1854986,54.1193788 33.7108783,60.9250573 C32.9880475,58.579771 32.6101489,56.7314259 32.6052907,56.7062337 L30.8400289,47.9297004 L27.3272031,56.1702965 C21.9321717,68.8260769 23.4042064,78.4525867 26.5023501,85.1150494 L2.82417593,85.1150494 L2.82417593,73.5884298 L10.0344392,73.5884298 L12.7144307,73.5884298 L12.8088186,70.924618 C13.2283589,59.083269 19.5183402,48.2430494 29.6338072,41.9274102 L30.9340698,41.1153945 L30.9340698,39.589371 L30.9340698,30.0864063 L34.7106265,24.7732769 L35.2196965,24.0568533 L35.2196965,23.1796141 L35.2196965,2.88750431 L61.4324632,2.88750431" id="Fill-29" fill="#AE2B11"></path>
                    </g>
                    <path d="M167.75405,34.4494118 L167.75405,16.8235294 C167.75405,16.4439197 167.996525,16.2368629 168.481481,16.2023529 L173.261743,16.2023529 C174.889811,16.2023529 176.188782,16.6423485 177.158695,17.5223529 C178.128608,18.4023573 178.613557,19.7913631 178.613557,21.6894118 L178.613557,21.9482353 C178.613557,23.846284 178.124278,25.2396034 177.145705,26.1282353 C176.167132,27.0168672 174.855171,27.4611765 173.209783,27.4611765 L169.468709,27.4611765 L169.468709,34.4494118 C169.468709,34.6564716 169.382111,34.8203916 169.208912,34.9411765 C169.035714,35.0619614 168.836538,35.1223529 168.61138,35.1223529 C168.368901,35.1223529 168.165396,35.0619614 168.000857,34.9411765 C167.836318,34.8203916 167.75405,34.6564716 167.75405,34.4494118 Z M169.468709,25.9858824 L173.209783,25.9858824 C174.387535,25.9858824 175.296814,25.6580425 175.93765,25.0023529 C176.578485,24.3466634 176.898898,23.3545164 176.898898,22.0258824 L176.898898,21.7152941 C176.898898,19.0925359 175.669205,17.7811765 173.209783,17.7811765 L169.468709,17.7811765 L169.468709,25.9858824 Z M190.798027,34.4494118 L190.798027,16.8235294 C190.798027,16.4094097 191.083801,16.2023529 191.655356,16.2023529 C192.226912,16.2023529 192.512686,16.4094097 192.512686,16.8235294 L192.512686,34.4494118 C192.512686,34.6564716 192.426088,34.8203916 192.252889,34.9411765 C192.07969,35.0619614 191.880515,35.1223529 191.655356,35.1223529 C191.412878,35.1223529 191.209373,35.0619614 191.044834,34.9411765 C190.880295,34.8203916 190.798027,34.6564716 190.798027,34.4494118 Z M204.463339,34.5270588 C204.463339,34.337254 204.515298,34.1388246 204.619217,33.9317647 L213.270451,17.7811765 L205.424587,17.7811765 C205.234069,17.7811765 205.078192,17.7035302 204.956953,17.5482353 C204.835714,17.3929404 204.775095,17.2031384 204.775095,16.9788235 C204.775095,16.7717637 204.831384,16.590589 204.943963,16.4352941 C205.056542,16.2799992 205.216749,16.2023529 205.424587,16.2023529 L214.855211,16.2023529 C215.288208,16.2023529 215.504703,16.3835276 215.504703,16.7458824 C215.504703,16.9529422 215.435425,17.1772537 215.296866,17.4188235 L206.671612,33.5435294 L215.166968,33.5435294 C215.374806,33.5435294 215.535012,33.6211757 215.647592,33.7764706 C215.760171,33.9317655 215.81646,34.1129401 215.81646,34.32 C215.81646,34.5270599 215.760171,34.7125482 215.647592,34.8764706 C215.535012,35.040393 215.374806,35.1223529 215.166968,35.1223529 L205.086851,35.1223529 C204.671174,35.1223529 204.463339,34.9239236 204.463339,34.5270588 Z M226.39019,34.5270588 C226.39019,34.337254 226.442148,34.1388246 226.546068,33.9317647 L235.197301,17.7811765 L227.351438,17.7811765 C227.160919,17.7811765 227.005043,17.7035302 226.883804,17.5482353 C226.762564,17.3929404 226.701946,17.2031384 226.701946,16.9788235 C226.701946,16.7717637 226.758234,16.590589 226.870814,16.4352941 C226.983393,16.2799992 227.143599,16.2023529 227.351438,16.2023529 L236.782062,16.2023529 C237.215059,16.2023529 237.431554,16.3835276 237.431554,16.7458824 C237.431554,16.9529422 237.362275,17.1772537 237.223716,17.4188235 L228.598462,33.5435294 L237.093818,33.5435294 C237.301657,33.5435294 237.461863,33.6211757 237.574442,33.7764706 C237.687021,33.9317655 237.74331,34.1129401 237.74331,34.32 C237.74331,34.5270599 237.687021,34.7125482 237.574442,34.8764706 C237.461863,35.040393 237.301657,35.1223529 237.093818,35.1223529 L227.013702,35.1223529 C226.598025,35.1223529 226.39019,34.9239236 226.39019,34.5270588 Z M249.667983,34.4494118 L249.667983,16.8494118 C249.667983,16.6423519 249.745922,16.4827457 249.901801,16.3705882 C250.057679,16.2584308 250.239535,16.2023529 250.447374,16.2023529 L259.69614,16.2023529 C260.129137,16.2023529 260.345632,16.4525465 260.345632,16.9529412 C260.345632,17.177256 260.289344,17.3713717 260.176764,17.5352941 C260.064185,17.6992165 259.903979,17.7811765 259.69614,17.7811765 L251.382642,17.7811765 L251.382642,24.8988235 L255.461452,24.8988235 C255.669291,24.8988235 255.829497,24.9721561 255.942076,25.1188235 C256.054656,25.2654909 256.110944,25.4509793 256.110944,25.6752941 C256.110944,26.1411788 255.894449,26.3741176 255.461452,26.3741176 L251.382642,26.3741176 L251.382642,33.5435294 L259.69614,33.5435294 C259.886659,33.5435294 260.042535,33.6211757 260.163774,33.7764706 C260.285014,33.9317655 260.345632,34.1215675 260.345632,34.3458824 C260.345632,34.863532 260.129137,35.1223529 259.69614,35.1223529 L250.447374,35.1223529 C250.239535,35.1223529 250.057679,35.0619614 249.901801,34.9411765 C249.745922,34.8203916 249.667983,34.6564716 249.667983,34.4494118 Z M272.218346,34.4494118 L272.218346,16.8235294 C272.218346,16.4439197 272.434842,16.2368629 272.867838,16.2023529 L277.466242,16.2023529 C279.14627,16.2023529 280.501529,16.5992117 281.532062,17.3929412 C282.562594,18.1866706 283.077853,19.4894027 283.077853,21.3011765 C283.077853,24.1655045 281.726923,25.8305859 279.025023,26.2964706 L283.025894,33.9576471 C283.095173,34.043922 283.129812,34.1560777 283.129812,34.2941176 C283.129812,34.5184325 283.025895,34.7211756 282.818056,34.9023529 C282.610218,35.0835303 282.385063,35.1741176 282.142584,35.1741176 C281.830827,35.1741176 281.527733,34.8721599 281.233296,34.2682353 L277.232425,26.5035294 L273.933005,26.5035294 L273.933005,34.4494118 C273.933005,34.6564716 273.846407,34.8203916 273.673208,34.9411765 C273.50001,35.0619614 273.300834,35.1223529 273.075676,35.1223529 C272.833198,35.1223529 272.629692,35.0619614 272.465153,34.9411765 C272.300615,34.8203916 272.218346,34.6564716 272.218346,34.4494118 Z M273.933005,25.0282353 L277.466242,25.0282353 C280.064223,25.0282353 281.363194,23.8117769 281.363194,21.3788235 C281.363194,18.9803802 280.064223,17.7811765 277.466242,17.7811765 L273.933005,17.7811765 L273.933005,25.0282353 Z M295.314282,34.4494118 L295.314282,16.8235294 C295.314282,16.4094097 295.600056,16.2023529 296.171612,16.2023529 C296.743168,16.2023529 297.028941,16.4094097 297.028941,16.8235294 L297.028941,34.4494118 C297.028941,34.6564716 296.942343,34.8203916 296.769145,34.9411765 C296.595946,35.0619614 296.39677,35.1223529 296.171612,35.1223529 C295.929134,35.1223529 295.725628,35.0619614 295.561089,34.9411765 C295.396551,34.8203916 295.314282,34.6564716 295.314282,34.4494118 Z M308.901655,34.3976471 C308.901655,34.3113721 308.910315,34.2509806 308.927635,34.2164706 L314.357388,16.6423529 C314.478628,16.2454882 314.81636,16.0470588 315.370596,16.0470588 C315.924832,16.0470588 316.271224,16.2454882 316.409783,16.6423529 L321.813557,34.2164706 C321.813557,34.2337256 321.817887,34.2596077 321.826547,34.2941176 C321.835207,34.3286276 321.839536,34.3545097 321.839536,34.3717647 C321.839536,34.5788246 321.726959,34.7556855 321.501801,34.9023529 C321.276642,35.0490203 321.042827,35.1223529 320.800349,35.1223529 C320.471272,35.1223529 320.254776,34.9756877 320.150857,34.6823529 L318.955792,30.6964706 L311.75942,30.6964706 L310.564355,34.6823529 C310.495076,34.9756877 310.269921,35.1223529 309.888883,35.1223529 C309.646405,35.1223529 309.42125,35.053334 309.213412,34.9152941 C309.005573,34.7772542 308.901655,34.6047069 308.901655,34.3976471 Z M312.201075,29.2211765 L318.514137,29.2211765 L315.370596,18.7905882 L312.201075,29.2211765 Z M151.489954,78.0870588 C151.422298,77.2243094 151.310668,76.6008475 151.155059,76.2166544 C150.999451,75.8324613 150.772808,75.6403676 150.475122,75.6403676 C150.258624,75.6403676 149.974474,75.7549498 149.622664,75.9841176 C148.797264,76.5637774 148.036148,77.0389565 147.339294,77.4096691 C146.64244,77.7803818 145.847496,78.0836875 144.95444,78.3195956 C144.061384,78.5555036 143.053329,78.6734559 141.930243,78.6734559 C138.791016,78.6734559 136.044233,78.0803246 133.689813,76.8940441 C131.335393,75.7077637 129.508715,73.9856608 128.209724,71.7276838 C126.910734,69.4697068 126.261248,66.7837656 126.261248,63.6697794 C126.261248,60.6231956 126.927647,57.9271441 128.260466,55.5815441 C129.593284,53.2359442 131.447024,51.4161094 133.821741,50.1219853 C136.196458,48.8278612 138.912796,48.1808088 141.970836,48.1808088 C143.621637,48.1808088 145.032238,48.4167133 146.202683,48.8885294 C147.373127,49.3603455 148.51311,50.0208781 149.622664,50.8701471 C149.933881,51.1127953 150.2045,51.2341176 150.434529,51.2341176 C151.002838,51.2341176 151.354642,50.4118219 151.489954,48.7672059 L152.443895,48.7672059 C152.335646,50.7218725 152.281522,54.1728184 152.281522,59.1201471 L151.327581,59.1201471 C151.192269,57.650777 150.999453,56.4207035 150.749127,55.4298897 C150.498801,54.4390759 150.116551,53.5493789 149.602368,52.7607721 C149.088184,51.9721652 148.384574,51.2880421 147.491519,50.7083824 C146.21959,49.8860743 144.93415,49.4749265 143.63516,49.4749265 C141.64608,49.4749265 140.073108,50.1725298 138.916194,51.5677574 C137.759281,52.9629849 136.954189,54.7053082 136.500896,56.7947794 C136.047602,58.8842506 135.820959,61.1219734 135.820959,63.5080147 C135.820959,65.894056 136.047602,68.1317788 136.500896,70.22125 C136.954189,72.3107212 137.759281,74.0530445 138.916194,75.4482721 C140.073108,76.8434996 141.64608,77.5411029 143.63516,77.5411029 C144.93415,77.5411029 146.21959,77.1299551 147.491519,76.3076471 C148.384574,75.7549482 149.088184,75.0741952 149.602368,74.2653676 C150.116551,73.4565401 150.498801,72.509552 150.749127,71.424375 C150.999453,70.339198 151.192269,68.9743219 151.327581,67.3297059 L152.281522,67.3297059 C152.281522,72.465761 152.335646,76.0515094 152.443895,78.0870588 L151.489954,78.0870588 Z M166.529753,60.2322794 C166.529753,59.3560495 166.309875,58.5708245 165.870113,57.8765809 C165.430351,57.1823372 164.621876,56.8352206 163.444666,56.8352206 C163.092856,56.8352206 162.717372,56.9026219 162.318203,57.0374265 C161.919035,57.1722311 161.563847,57.3407343 161.252631,57.5429412 C163.106398,58.2304446 164.033268,59.4773684 164.033268,61.28375 C164.033268,61.9308121 163.867514,62.5172033 163.536001,63.0429412 C163.204488,63.5686791 162.734287,63.9865671 162.125386,64.2966176 C161.516484,64.6066682 160.81964,64.7616912 160.034833,64.7616912 C159.358276,64.7616912 158.762914,64.6032982 158.24873,64.2865074 C157.734546,63.9697166 157.335383,63.5349783 157.051229,62.9822794 C156.767075,62.4295806 156.625,61.8162289 156.625,61.1422059 C156.625,60.3064174 156.858409,59.5683733 157.325234,58.9280515 C157.792058,58.2877296 158.417865,57.7586295 159.202671,57.3407353 C160.94819,56.451025 163.167266,56.0061765 165.859965,56.0061765 C167.443109,56.0061765 168.782673,56.1578294 169.878696,56.4611397 C170.97472,56.76445 171.894824,57.3070304 172.639038,58.0888971 C173.180284,58.6550764 173.542236,59.3729001 173.724907,60.2423897 C173.907578,61.1118793 173.998911,62.3284726 173.998911,63.8922059 L173.998911,74.9730882 C173.998911,75.6336308 174.04627,76.0953296 174.140988,76.3581985 C174.235706,76.6210675 174.398077,76.7525 174.628107,76.7525 C174.844605,76.7525 175.044187,76.701949 175.226857,76.6008456 C175.409528,76.4997421 175.642937,76.3480892 175.927091,76.1458824 L176.333023,76.8536029 C175.683528,77.3928213 174.925795,77.7803787 174.059801,78.0162868 C173.193808,78.2521948 172.151925,78.3701471 170.934121,78.3701471 C169.472757,78.3701471 168.400429,78.0769515 167.717106,77.4905515 C167.033783,76.9041515 166.678595,76.1526271 166.651533,75.2359559 C166.069694,76.1930685 165.251071,76.9547031 164.195641,77.5208824 C163.140212,78.0870617 161.97655,78.3701471 160.704622,78.3701471 C159.067352,78.3701471 157.785295,77.9387788 156.858411,77.0760294 C155.931527,76.21328 155.468092,75.060718 155.468092,73.6183088 C155.468092,72.2028606 155.894317,71.0233381 156.74678,70.0797059 C157.599242,69.1360737 158.932041,68.367699 160.745215,67.7745588 C162.22011,67.2488209 163.312735,66.834303 164.02312,66.5309926 C164.733505,66.2276823 165.328867,65.8637154 165.809223,65.4390809 C166.289579,65.0144464 166.529753,64.5123068 166.529753,63.9326471 L166.529753,60.2322794 Z M166.529753,65.6311765 C166.326786,65.968188 165.785548,66.5747995 164.906023,67.4510294 C163.552908,68.758634 162.876361,70.3156037 162.876361,72.1219853 C162.876361,74.0766519 163.57997,75.0539706 164.98721,75.0539706 C165.569049,75.0539706 166.083225,74.8248062 166.529753,74.3664706 L166.529753,65.6311765 Z M179.235441,70.0999265 C179.411346,71.582777 179.739471,72.890362 180.219827,74.0227206 C180.700183,75.1550792 181.322607,76.038036 182.087117,76.6716176 C182.851627,77.3051992 183.727756,77.6219853 184.71553,77.6219853 C185.41915,77.6219853 185.997598,77.4298916 186.450891,77.0456985 C186.904185,76.6615054 187.130828,76.0987047 187.130828,75.3572794 C187.130828,74.5888932 186.97184,73.89803 186.653857,73.2846691 C186.335875,72.6713082 185.946861,72.1253578 185.486802,71.6468015 C185.026742,71.1682452 184.289306,70.4706418 183.274469,69.5539706 C182.097259,68.4755338 181.207599,67.6195375 180.605463,66.9859559 C180.003327,66.3523743 179.485768,65.6143302 179.052771,64.7718015 C178.619774,63.9292727 178.403279,62.9957649 178.403279,61.97125 C178.403279,60.7849696 178.761849,59.7402496 179.479,58.8370588 C180.196151,57.933868 181.150083,57.2362647 182.340825,56.7442279 C183.531566,56.2521912 184.823771,56.0061765 186.21748,56.0061765 C187.313503,56.0061765 188.331707,56.1241287 189.272122,56.3600368 C190.212537,56.5959448 190.939826,56.8554398 191.454009,57.1385294 C191.738164,57.3002949 191.988486,57.3811765 192.204985,57.3811765 C192.759762,57.3811765 193.104801,56.936328 193.240112,56.0466176 L194.072274,56.0466176 C193.964025,57.4890268 193.909901,59.9761343 193.909901,63.5080147 L193.077739,63.5080147 C192.861241,61.7016331 192.343682,60.1682539 191.525048,58.9078309 C190.706413,57.6474079 189.519072,57.0172059 187.96299,57.0172059 C187.25937,57.0172059 186.674156,57.2261499 186.207332,57.6440441 C185.740507,58.0619384 185.507098,58.621369 185.507098,59.3223529 C185.507098,60.2525047 185.81831,61.0714303 186.440743,61.7791544 C187.063176,62.4868785 187.79723,63.1676315 188.642927,63.8214338 C189.488624,64.4752361 190.107665,64.9638954 190.500068,65.2874265 C191.528436,66.1366954 192.347058,66.8713694 192.95596,67.4914706 C193.564862,68.1115717 194.055358,68.8159152 194.427465,69.6045221 C194.799572,70.3931289 194.985622,71.286196 194.985622,72.28375 C194.985622,73.5104718 194.610138,74.6124829 193.85916,75.5898162 C193.108181,76.5671495 192.09336,77.325414 190.814666,77.8646324 C189.535972,78.4038507 188.132136,78.6734559 186.603116,78.6734559 C184.871129,78.6734559 183.443614,78.3229692 182.320528,77.6219853 C181.427472,77.1636497 180.730628,76.9344853 180.229976,76.9344853 C179.702261,76.9344853 179.316629,77.4130344 179.073068,78.3701471 L178.240906,78.3701471 C178.349155,76.7929333 178.403279,74.0362207 178.403279,70.0999265 L179.235441,70.0999265 Z M208.219022,60.2322794 C208.219022,59.3560495 207.999144,58.5708245 207.559382,57.8765809 C207.119619,57.1823372 206.311145,56.8352206 205.133935,56.8352206 C204.782125,56.8352206 204.406641,56.9026219 204.007472,57.0374265 C203.608303,57.1722311 203.253116,57.3407343 202.941899,57.5429412 C204.795667,58.2304446 205.722537,59.4773684 205.722537,61.28375 C205.722537,61.9308121 205.556783,62.5172033 205.22527,63.0429412 C204.893757,63.5686791 204.423556,63.9865671 203.814654,64.2966176 C203.205753,64.6066682 202.508909,64.7616912 201.724102,64.7616912 C201.047544,64.7616912 200.452183,64.6032982 199.937999,64.2865074 C199.423815,63.9697166 199.024652,63.5349783 198.740498,62.9822794 C198.456344,62.4295806 198.314269,61.8162289 198.314269,61.1422059 C198.314269,60.3064174 198.547678,59.5683733 199.014502,58.9280515 C199.481327,58.2877296 200.107134,57.7586295 200.89194,57.3407353 C202.637459,56.451025 204.856534,56.0061765 207.549233,56.0061765 C209.132378,56.0061765 210.471942,56.1578294 211.567965,56.4611397 C212.663989,56.76445 213.584093,57.3070304 214.328306,58.0888971 C214.869552,58.6550764 215.231505,59.3729001 215.414176,60.2423897 C215.596846,61.1118793 215.68818,62.3284726 215.68818,63.8922059 L215.68818,74.9730882 C215.68818,75.6336308 215.735539,76.0953296 215.830257,76.3581985 C215.924975,76.6210675 216.087346,76.7525 216.317376,76.7525 C216.533874,76.7525 216.733456,76.701949 216.916126,76.6008456 C217.098797,76.4997421 217.332206,76.3480892 217.61636,76.1458824 L218.022292,76.8536029 C217.372797,77.3928213 216.615064,77.7803787 215.74907,78.0162868 C214.883077,78.2521948 213.841193,78.3701471 212.62339,78.3701471 C211.162026,78.3701471 210.089698,78.0769515 209.406375,77.4905515 C208.723052,76.9041515 208.367864,76.1526271 208.340802,75.2359559 C207.758962,76.1930685 206.94034,76.9547031 205.88491,77.5208824 C204.82948,78.0870617 203.665819,78.3701471 202.393891,78.3701471 C200.756621,78.3701471 199.474564,77.9387788 198.54768,77.0760294 C197.620796,76.21328 197.157361,75.060718 197.157361,73.6183088 C197.157361,72.2028606 197.583586,71.0233381 198.436049,70.0797059 C199.288511,69.1360737 200.62131,68.367699 202.434484,67.7745588 C203.909379,67.2488209 205.002003,66.834303 205.712389,66.5309926 C206.422774,66.2276823 207.018136,65.8637154 207.498492,65.4390809 C207.978848,65.0144464 208.219022,64.5123068 208.219022,63.9326471 L208.219022,60.2322794 Z M208.219022,65.6311765 C208.016055,65.968188 207.474817,66.5747995 206.595292,67.4510294 C205.242177,68.758634 204.56563,70.3156037 204.56563,72.1219853 C204.56563,74.0766519 205.269239,75.0539706 206.676479,75.0539706 C207.258318,75.0539706 207.772494,74.8248062 208.219022,74.3664706 L208.219022,65.6311765 Z M257.01211,49.59625 C256.146116,49.7849764 255.510162,50.0815421 255.104227,50.4859559 C254.698293,50.8903697 254.424291,51.5070914 254.282214,52.3361397 C254.140137,53.165188 254.069099,54.4020016 254.069099,56.0466176 L254.069099,78.0870588 C253.663165,78.0466174 253.209878,78.0263971 252.709225,78.0263971 C252.222104,78.0263971 251.701162,78.0466174 251.146385,78.0870588 L232.737346,58.0484559 L232.737346,69.9786029 C232.737346,72.0141523 232.818531,73.4767603 232.980905,74.3664706 C233.143279,75.2561809 233.508615,75.9133435 234.076923,76.3379779 C234.645231,76.7626124 235.599163,77.0692883 236.938747,77.2580147 L236.938747,78.0870588 C235.829193,78.0061761 234.273134,77.9657353 232.270523,77.9657353 C230.809159,77.9657353 229.659028,78.0061761 228.820097,78.0870588 L228.820097,77.2580147 C229.686091,77.0692883 230.325428,76.7727226 230.738128,76.3683088 C231.150828,75.963895 231.428213,75.3471733 231.57029,74.518125 C231.712367,73.6890767 231.783404,72.4522631 231.783404,70.8076471 L231.783404,53.1550735 C231.783404,52.1170781 231.708984,51.3621837 231.560142,50.8903676 C231.411299,50.4185516 231.137297,50.0950254 230.738128,49.9197794 C230.338959,49.7445334 229.699622,49.6366914 228.820097,49.59625 L228.820097,48.7672059 C229.659028,48.8480886 230.809159,48.8885294 232.270523,48.8885294 C233.799544,48.8885294 235.078218,48.8480886 236.106586,48.7672059 L253.094861,66.6624265 L253.094861,56.8756618 C253.094861,54.8401124 253.013676,53.3775044 252.851302,52.4877941 C252.688928,51.5980838 252.326975,50.9409212 251.765432,50.5162868 C251.203889,50.0916523 250.25334,49.7849764 248.913756,49.59625 L248.913756,48.7672059 C250.036842,48.8480886 251.586136,48.8885294 253.561684,48.8885294 C255.036579,48.8885294 256.18671,48.8480886 257.01211,48.7672059 L257.01211,49.59625 Z M269.981654,56.0061765 C273.391504,56.0061765 276.023273,56.8992435 277.877041,58.6854044 C279.730809,60.4715653 280.657679,63.3664506 280.657679,67.3701471 C280.657679,71.3603631 279.730809,74.2417681 277.877041,76.0144485 C276.023273,77.787129 273.391504,78.6734559 269.981654,78.6734559 C266.558272,78.6734559 263.919737,77.787129 262.06597,76.0144485 C260.212202,74.2417681 259.285332,71.3603631 259.285332,67.3701471 C259.285332,63.3664506 260.215585,60.4715653 262.076118,58.6854044 C263.936651,56.8992435 266.571804,56.0061765 269.981654,56.0061765 Z M269.981654,56.8352206 C269.102129,56.8352206 268.395137,57.7046972 267.860656,59.4436765 C267.326176,61.1826558 267.05894,63.8247862 267.05894,67.3701471 C267.05894,70.9020275 267.326176,73.5306776 267.860656,75.2561765 C268.395137,76.9816753 269.102129,77.8444118 269.981654,77.8444118 C270.861179,77.8444118 271.564788,76.9816753 272.092503,75.2561765 C272.620218,73.5306776 272.884071,70.9020275 272.884071,67.3701471 C272.884071,63.8247862 272.620218,61.1826558 272.092503,59.4436765 C271.564788,57.7046972 270.861179,56.8352206 269.981654,56.8352206 Z M284.574927,70.0999265 C284.750832,71.582777 285.078958,72.890362 285.559314,74.0227206 C286.03967,75.1550792 286.662093,76.038036 287.426603,76.6716176 C288.191113,77.3051992 289.067242,77.6219853 290.055016,77.6219853 C290.758636,77.6219853 291.337084,77.4298916 291.790378,77.0456985 C292.243671,76.6615054 292.470315,76.0987047 292.470315,75.3572794 C292.470315,74.5888932 292.311326,73.89803 291.993344,73.2846691 C291.675362,72.6713082 291.286347,72.1253578 290.826288,71.6468015 C290.366229,71.1682452 289.628792,70.4706418 288.613956,69.5539706 C287.436746,68.4755338 286.547086,67.6195375 285.94495,66.9859559 C285.342813,66.3523743 284.825255,65.6143302 284.392258,64.7718015 C283.959261,63.9292727 283.742766,62.9957649 283.742766,61.97125 C283.742766,60.7849696 284.101336,59.7402496 284.818487,58.8370588 C285.535638,57.933868 286.48957,57.2362647 287.680311,56.7442279 C288.871052,56.2521912 290.163258,56.0061765 291.556967,56.0061765 C292.65299,56.0061765 293.671194,56.1241287 294.611609,56.3600368 C295.552024,56.5959448 296.279312,56.8554398 296.793496,57.1385294 C297.07765,57.3002949 297.327973,57.3811765 297.544471,57.3811765 C298.099248,57.3811765 298.444288,56.936328 298.579599,56.0466176 L299.411761,56.0466176 C299.303511,57.4890268 299.249388,59.9761343 299.249388,63.5080147 L298.417226,63.5080147 C298.200728,61.7016331 297.683169,60.1682539 296.864534,58.9078309 C296.0459,57.6474079 294.858559,57.0172059 293.302476,57.0172059 C292.598857,57.0172059 292.013643,57.2261499 291.546818,57.6440441 C291.079994,58.0619384 290.846585,58.621369 290.846585,59.3223529 C290.846585,60.2525047 291.157797,61.0714303 291.780229,61.7791544 C292.402662,62.4868785 293.136716,63.1676315 293.982413,63.8214338 C294.82811,64.4752361 295.447151,64.9638954 295.839555,65.2874265 C296.867922,66.1366954 297.686544,66.8713694 298.295446,67.4914706 C298.904348,68.1115717 299.394845,68.8159152 299.766952,69.6045221 C300.139058,70.3931289 300.325109,71.286196 300.325109,72.28375 C300.325109,73.5104718 299.949625,74.6124829 299.198646,75.5898162 C298.447667,76.5671495 297.432846,77.325414 296.154152,77.8646324 C294.875459,78.4038507 293.471623,78.6734559 291.942603,78.6734559 C290.210615,78.6734559 288.7831,78.3229692 287.660015,77.6219853 C286.766959,77.1636497 286.070115,76.9344853 285.569462,76.9344853 C285.041747,76.9344853 284.656115,77.4130344 284.412554,78.3701471 L283.580393,78.3701471 C283.688642,76.7929333 283.742766,74.0362207 283.742766,70.0999265 L284.574927,70.0999265 Z M316.156477,56.6330147 L316.156477,57.4620588 L312.076855,57.4620588 L312.076855,74.6091176 C312.076855,75.148336 312.171572,75.5325234 312.361008,75.7616912 C312.550444,75.990859 312.875187,76.1054412 313.335246,76.1054412 C313.673525,76.1054412 314.045626,76.0077093 314.45156,75.8122426 C314.857495,75.616776 315.229596,75.3101001 315.567875,74.8922059 L316.19707,75.3977206 C314.925142,77.581555 312.956389,78.6734559 310.290752,78.6734559 C308.38286,78.6734559 306.955345,78.2016469 306.008164,77.2580147 C305.439856,76.6918354 305.060989,75.9773818 304.871553,75.1146324 C304.682117,74.2518829 304.5874,73.0453999 304.5874,71.4951471 L304.5874,57.4620588 L301.441423,57.4620588 L301.441423,56.6330147 L304.5874,56.6330147 L304.5874,51.6991912 C306.089358,51.6991912 307.442453,51.5542784 308.646725,51.2644485 C309.850998,50.9746186 310.994363,50.5129198 312.076855,49.8793382 L312.076855,56.6330147 L316.156477,56.6330147 Z M326.812205,59.1201471 C327.894697,57.0441563 329.687548,56.0061765 332.190811,56.0061765 C333.543926,56.0061765 334.518154,56.4206944 335.113525,57.2497426 C335.708896,58.0787909 336.006577,59.0594796 336.006577,60.1918382 C336.006577,61.4320405 335.658155,62.4194694 334.9613,63.1541544 C334.264446,63.8888395 333.340959,64.2561765 332.190811,64.2561765 C330.986538,64.2561765 330.066434,63.9899414 329.43047,63.4574632 C328.794506,62.9249851 328.476528,62.2004212 328.476528,61.28375 C328.476528,59.6391339 329.186903,58.3517694 330.607674,57.4216176 C330.107022,57.4216176 329.6605,57.5159794 329.268097,57.7047059 C328.564477,58.001276 327.979263,58.4899353 327.512439,59.1706985 C327.045614,59.8514617 326.812205,60.596246 326.812205,61.4050735 L326.812205,73.8205147 C326.812205,74.6967446 326.933984,75.3808676 327.177544,75.8729044 C327.421105,76.3649412 327.799972,76.7120578 328.314155,76.9142647 C328.828339,77.1164716 329.518418,77.2175735 330.384411,77.2175735 L330.384411,78.0870588 C326.974561,77.9792151 324.735189,77.9252941 323.666228,77.9252941 C322.637861,77.9252941 320.418785,77.9792151 317.008935,78.0870588 L317.008935,77.2175735 C317.590775,77.2175735 318.050827,77.1299519 318.389106,76.9547059 C318.727384,76.7794599 318.970941,76.4761541 319.119784,76.0447794 C319.268627,75.6134047 319.343047,75.0135333 319.343047,74.2451471 L319.343047,61.1017647 C319.343047,59.821121 319.167145,58.8943534 318.815335,58.3214338 C318.463525,57.7485143 317.861398,57.4620588 317.008935,57.4620588 L317.008935,56.5925735 C317.88846,56.6734563 318.747675,56.7138971 319.586606,56.7138971 C322.468742,56.7138971 324.877251,56.5251735 326.812205,56.1477206 L326.812205,59.1201471 Z M348.103365,60.2322794 C348.103365,59.3560495 347.883487,58.5708245 347.443725,57.8765809 C347.003963,57.1823372 346.195488,56.8352206 345.018278,56.8352206 C344.666468,56.8352206 344.290985,56.9026219 343.891816,57.0374265 C343.492647,57.1722311 343.137459,57.3407343 342.826243,57.5429412 C344.68001,58.2304446 345.60688,59.4773684 345.60688,61.28375 C345.60688,61.9308121 345.441126,62.5172033 345.109613,63.0429412 C344.7781,63.5686791 344.307899,63.9865671 343.698998,64.2966176 C343.090096,64.6066682 342.393252,64.7616912 341.608445,64.7616912 C340.931888,64.7616912 340.336526,64.6032982 339.822342,64.2865074 C339.308158,63.9697166 338.908995,63.5349783 338.624841,62.9822794 C338.340687,62.4295806 338.198612,61.8162289 338.198612,61.1422059 C338.198612,60.3064174 338.432021,59.5683733 338.898846,58.9280515 C339.36567,58.2877296 339.991477,57.7586295 340.776284,57.3407353 C342.521802,56.451025 344.740878,56.0061765 347.433577,56.0061765 C349.016721,56.0061765 350.356285,56.1578294 351.452309,56.4611397 C352.548332,56.76445 353.468436,57.3070304 354.21265,58.0888971 C354.753896,58.6550764 355.115849,59.3729001 355.298519,60.2423897 C355.48119,61.1118793 355.572524,62.3284726 355.572524,63.8922059 L355.572524,74.9730882 C355.572524,75.6336308 355.619882,76.0953296 355.7146,76.3581985 C355.809318,76.6210675 355.971689,76.7525 356.201719,76.7525 C356.418217,76.7525 356.617799,76.701949 356.800469,76.6008456 C356.98314,76.4997421 357.216549,76.3480892 357.500703,76.1458824 L357.906636,76.8536029 C357.25714,77.3928213 356.499407,77.7803787 355.633413,78.0162868 C354.76742,78.2521948 353.725537,78.3701471 352.507733,78.3701471 C351.046369,78.3701471 349.974041,78.0769515 349.290718,77.4905515 C348.607395,76.9041515 348.252207,76.1526271 348.225145,75.2359559 C347.643306,76.1930685 346.824683,76.9547031 345.769253,77.5208824 C344.713824,78.0870617 343.550162,78.3701471 342.278234,78.3701471 C340.640965,78.3701471 339.358907,77.9387788 338.432023,77.0760294 C337.505139,76.21328 337.041704,75.060718 337.041704,73.6183088 C337.041704,72.2028606 337.467929,71.0233381 338.320392,70.0797059 C339.172854,69.1360737 340.505653,68.367699 342.318827,67.7745588 C343.793723,67.2488209 344.886347,66.834303 345.596732,66.5309926 C346.307118,66.2276823 346.902479,65.8637154 347.382835,65.4390809 C347.863191,65.0144464 348.103365,64.5123068 348.103365,63.9326471 L348.103365,60.2322794 Z M348.103365,65.6311765 C347.900398,65.968188 347.35916,66.5747995 346.479635,67.4510294 C345.12652,68.758634 344.449973,70.3156037 344.449973,72.1219853 C344.449973,74.0766519 345.153582,75.0539706 346.560822,75.0539706 C347.142661,75.0539706 347.656837,74.8248062 348.103365,74.3664706 L348.103365,65.6311765 Z" id="PIZZERIA-Casa-Nostra" fill="#000000"></path>
                </g>
            </g>
        </g>
    </g>
</svg>