<?xml version="1.0" encoding="UTF-8"?>
<svg width="179px" height="48px" viewBox="0 0 179 48" version="1.1" xmlns="http://www.w3.org/2000/svg" xmlns:xlink="http://www.w3.org/1999/xlink">
    <!-- Generator: Sketch 51.2 (57519) - http://www.bohemiancoding.com/sketch -->
    <title>Group 4</title>
    <desc>Created with Sketch.</desc>
    <defs></defs>
    <g id="Website-8/29/18" stroke="none" stroke-width="1" fill="none" fill-rule="evenodd">
        <g id="Homepage---Small" transform="translate(-181.000000, -16.000000)" fill="#000000">
            <g id="Group-4" transform="translate(181.000000, 16.000000)">
                <path d="M32.3808043,14.1044828 L32.3808043,0.595125857 C32.3808043,0.304173983 32.5681724,0.145475342 32.9429142,0.119025171 L36.6367791,0.119025171 C37.8948408,0.119025171 38.8985984,0.456259785 39.648082,1.13073913 C40.3975656,1.80521847 40.7723018,2.86982186 40.7723018,4.32458123 L40.7723018,4.52295652 C40.7723018,5.97771588 40.3942197,7.04562549 39.6380443,7.72671738 C38.8818689,8.40780927 37.8680738,8.7483501 36.5966284,8.7483501 L33.7057776,8.7483501 L33.7057776,14.1044828 C33.7057776,14.2631838 33.6388604,14.3888203 33.5050241,14.4813959 C33.3711877,14.5739715 33.2172782,14.6202586 33.043291,14.6202586 C32.8559201,14.6202586 32.6986647,14.5739715 32.5715202,14.4813959 C32.4443757,14.3888203 32.3808043,14.2631838 32.3808043,14.1044828 Z M33.7057776,7.61761097 L36.5966284,7.61761097 C37.5067156,7.61761097 38.2093459,7.36633812 38.7045404,6.86378489 C39.1997349,6.36123165 39.4473285,5.60080066 39.4473285,4.5824691 L39.4473285,4.34441876 C39.4473285,2.33420581 38.4971046,1.32911441 36.5966284,1.32911441 L33.7057776,1.32911441 L33.7057776,7.61761097 Z M50.1876422,14.1044828 L50.1876422,0.595125857 C50.1876422,0.277723813 50.4084688,0.119025171 50.8501288,0.119025171 C51.2917888,0.119025171 51.5126154,0.277723813 51.5126154,0.595125857 L51.5126154,14.1044828 C51.5126154,14.2631838 51.4456983,14.3888203 51.3118619,14.4813959 C51.1780256,14.5739715 51.0241161,14.6202586 50.8501288,14.6202586 C50.6627579,14.6202586 50.5055025,14.5739715 50.378358,14.4813959 C50.2512135,14.3888203 50.1876422,14.2631838 50.1876422,14.1044828 Z M60.7472777,14.1639954 C60.7472777,14.0185195 60.787428,13.8664333 60.8677298,13.7077322 L67.5528222,1.32911441 L61.4900657,1.32911441 C61.3428457,1.32911441 61.2223948,1.26960242 61.1287094,1.15057666 C61.0350239,1.03155089 60.9881819,0.886077136 60.9881819,0.714151029 C60.9881819,0.555450007 61.0316781,0.416588695 61.1186717,0.297562929 C61.2056653,0.178537162 61.3294621,0.119025171 61.4900657,0.119025171 L68.7774187,0.119025171 C69.1120096,0.119025171 69.2793025,0.257886483 69.2793025,0.535613272 C69.2793025,0.694314294 69.2257688,0.866237822 69.1186997,1.05138901 L62.4536826,13.4101693 L69.018323,13.4101693 C69.1789266,13.4101693 69.3027234,13.4696813 69.389717,13.5887071 C69.4767106,13.7077328 69.5202068,13.8465942 69.5202068,14.0052952 C69.5202068,14.1639962 69.4767106,14.3061637 69.389717,14.431802 C69.3027234,14.5574403 69.1789266,14.6202586 69.018323,14.6202586 L61.2290861,14.6202586 C60.9078789,14.6202586 60.7472777,14.4681724 60.7472777,14.1639954 Z M77.6908753,14.1639954 C77.6908753,14.0185195 77.7310256,13.8664333 77.8113274,13.7077322 L84.4964199,1.32911441 L78.4336634,1.32911441 C78.2864434,1.32911441 78.1659925,1.26960242 78.072307,1.15057666 C77.9786216,1.03155089 77.9317795,0.886077136 77.9317795,0.714151029 C77.9317795,0.555450007 77.9752757,0.416588695 78.0622693,0.297562929 C78.149263,0.178537162 78.2730597,0.119025171 78.4336634,0.119025171 L85.7210164,0.119025171 C86.0556073,0.119025171 86.2229002,0.257886483 86.2229002,0.535613272 C86.2229002,0.694314294 86.1693665,0.866237822 86.0622974,1.05138901 L79.3972803,13.4101693 L85.9619206,13.4101693 C86.1225242,13.4101693 86.246321,13.4696813 86.3333146,13.5887071 C86.4203083,13.7077328 86.4638044,13.8465942 86.4638044,14.0052952 C86.4638044,14.1639962 86.4203083,14.3061637 86.3333146,14.431802 C86.246321,14.5574403 86.1225242,14.6202586 85.9619206,14.6202586 L78.1726838,14.6202586 C77.8514765,14.6202586 77.6908753,14.4681724 77.6908753,14.1639954 Z M95.6783913,14.1044828 L95.6783913,0.614963386 C95.6783913,0.456262364 95.7386168,0.333932161 95.8590695,0.247969107 C95.9795222,0.162006054 96.1200483,0.119025171 96.2806519,0.119025171 L103.427477,0.119025171 C103.762068,0.119025171 103.929361,0.31078603 103.929361,0.6943135 C103.929361,0.866239607 103.885865,1.01501958 103.798871,1.14065789 C103.711878,1.2662962 103.588081,1.32911441 103.427477,1.32911441 L97.0033646,1.32911441 L97.0033646,6.78443477 L100.155195,6.78443477 C100.315799,6.78443477 100.439595,6.84064054 100.526589,6.95305377 C100.613583,7.06546699 100.657079,7.20763452 100.657079,7.37956063 C100.657079,7.73663793 100.489786,7.9151739 100.155195,7.9151739 L97.0033646,7.9151739 L97.0033646,13.4101693 L103.427477,13.4101693 C103.574697,13.4101693 103.695148,13.4696813 103.788834,13.5887071 C103.882519,13.7077328 103.929361,13.8532066 103.929361,14.0251327 C103.929361,14.4218853 103.762068,14.6202586 103.427477,14.6202586 L96.2806519,14.6202586 C96.1200483,14.6202586 95.9795222,14.5739715 95.8590695,14.4813959 C95.7386168,14.3888203 95.6783913,14.2631838 95.6783913,14.1044828 Z M113.103797,14.1044828 L113.103797,0.595125857 C113.103797,0.304173983 113.27109,0.145475342 113.605681,0.119025171 L117.159019,0.119025171 C118.457231,0.119025171 119.504485,0.423197568 120.300811,1.03155149 C121.097138,1.6399054 121.495295,2.63838436 121.495295,4.0270183 C121.495295,6.22238244 120.451387,7.49858402 118.36354,7.85566132 L121.455144,13.7275698 C121.508679,13.7936952 121.535446,13.879657 121.535446,13.9854576 C121.535446,14.1573838 121.455145,14.3127762 121.294541,14.4516396 C121.133938,14.590503 120.959953,14.6599336 120.772582,14.6599336 C120.531677,14.6599336 120.297467,14.4284981 120.069945,13.9656201 L116.97834,8.01436154 L114.428771,8.01436154 L114.428771,14.1044828 C114.428771,14.2631838 114.361854,14.3888203 114.228017,14.4813959 C114.094181,14.5739715 113.940271,14.6202586 113.766284,14.6202586 C113.578913,14.6202586 113.421658,14.5739715 113.294513,14.4813959 C113.167369,14.3888203 113.103797,14.2631838 113.103797,14.1044828 Z M114.428771,6.88362242 L117.159019,6.88362242 C119.166564,6.88362242 120.170322,5.9512679 120.170322,4.08653089 C120.170322,2.24824405 119.166564,1.32911441 117.159019,1.32911441 L114.428771,1.32911441 L114.428771,6.88362242 Z M130.950786,14.1044828 L130.950786,0.595125857 C130.950786,0.277723813 131.171613,0.119025171 131.613273,0.119025171 C132.054933,0.119025171 132.275759,0.277723813 132.275759,0.595125857 L132.275759,14.1044828 C132.275759,14.2631838 132.208842,14.3888203 132.075006,14.4813959 C131.941169,14.5739715 131.78726,14.6202586 131.613273,14.6202586 C131.425902,14.6202586 131.268646,14.5739715 131.141502,14.4813959 C131.014357,14.3888203 130.950786,14.2631838 130.950786,14.1044828 Z M141.450195,14.0648078 C141.450195,13.9986823 141.456887,13.9523952 141.470271,13.9259451 L145.666019,0.456263157 C145.759705,0.152086198 146.020682,0 146.448958,0 C146.877235,0 147.144903,0.152086198 147.251972,0.456263157 L151.427646,13.9259451 C151.427646,13.9391701 151.430992,13.9590075 151.437683,13.9854576 C151.444375,14.0119078 151.447721,14.0317451 151.447721,14.0449702 C151.447721,14.2036713 151.360729,14.3392263 151.186741,14.4516396 C151.012754,14.5640528 150.832078,14.6202586 150.644707,14.6202586 C150.390418,14.6202586 150.223125,14.507847 150.142823,14.2830206 L149.219357,11.2280412 L143.658484,11.2280412 L142.735018,14.2830206 C142.681483,14.507847 142.507499,14.6202586 142.213059,14.6202586 C142.025688,14.6202586 141.851703,14.567359 141.6911,14.4615583 C141.530496,14.3557576 141.450195,14.2235088 141.450195,14.0648078 Z M143.999765,10.097302 L148.878076,10.097302 L146.448958,2.10277803 L143.999765,10.097302 Z M19.4950495,47.550556 C19.4427697,46.8893017 19.3565093,46.4114494 19.2362657,46.1169846 C19.1160221,45.8225198 18.9408873,45.6752896 18.710856,45.6752896 C18.5435606,45.6752896 18.3239886,45.7631111 18.0521335,45.9387568 C17.4143197,46.383037 16.8261804,46.747238 16.2876982,47.0313707 C15.749216,47.3155034 15.1349373,47.5479721 14.4448436,47.7287838 C13.7547499,47.9095955 12.9757922,48 12.1079471,48 C9.68216317,48 7.55963409,47.5453945 5.74029615,46.6361699 C3.92095822,45.7269453 2.5094241,44.4070396 1.50565145,42.6764132 C0.501878798,40.9457868 0,38.8871472 0,36.5004327 C0,34.1653786 0.514948558,32.09899 1.54486112,30.301205 C2.57477369,28.50342 4.00721942,27.1086077 5.8422413,26.1167263 C7.67726318,25.1248449 9.7762667,24.6289116 12.1393148,24.6289116 C13.4149426,24.6289116 14.5049606,24.8097206 15.4094016,25.1713441 C16.3138425,25.5329675 17.1947444,26.0392327 18.0521335,26.6901549 C18.2926207,26.8761326 18.5017369,26.9691201 18.6794883,26.9691201 C19.1186388,26.9691201 19.3904899,26.3388716 19.4950495,25.0783557 L20.2321914,25.0783557 C20.1485436,26.5765098 20.1067204,29.2214872 20.1067204,33.0133671 L19.3695786,33.0133671 C19.2650189,31.8871684 19.1160236,30.9443786 18.9225883,30.1849695 C18.7291529,29.4255603 18.4337763,28.743652 18.0364497,28.1392243 C17.639123,27.5347966 17.095421,27.0104505 16.4053273,26.5661703 C15.4224665,25.9359123 14.4291647,25.6207881 13.4253921,25.6207881 C11.8883652,25.6207881 10.6728775,26.1554661 9.77889249,27.2248382 C8.88490747,28.2942104 8.26278688,29.629614 7.91251205,31.2310891 C7.56223722,32.8325643 7.38710243,34.5476668 7.38710243,36.3764481 C7.38710243,38.2052294 7.56223722,39.9203319 7.91251205,41.5218071 C8.26278688,43.1232822 8.88490747,44.4586858 9.77889249,45.528058 C10.6728775,46.5974301 11.8883652,47.1321081 13.4253921,47.1321081 C14.4291647,47.1321081 15.4224665,46.8169839 16.4053273,46.1867259 C17.095421,45.7631099 17.639123,45.2413468 18.0364497,44.6214209 C18.4337763,44.001495 18.7291529,43.2756761 18.9225883,42.4439422 C19.1160236,41.6122083 19.2650189,40.5660991 19.3695786,39.3055832 L20.1067204,39.3055832 C20.1067204,43.2421124 20.1485436,45.9904092 20.2321914,47.550556 L19.4950495,47.550556 Z M31.1167966,33.8657609 C31.1167966,33.1941745 30.9468898,32.5923389 30.6070709,32.0602358 C30.267252,31.5281328 29.6425175,31.2620853 28.7328485,31.2620853 C28.4609934,31.2620853 28.1708447,31.313745 27.8623938,31.417066 C27.5539428,31.5203869 27.2794778,31.6495362 27.0389906,31.8045177 C28.4714578,32.3314547 29.1876807,33.2871594 29.1876807,34.6716605 C29.1876807,35.1676012 29.0595971,35.6170407 28.8034259,36.0199925 C28.5472548,36.4229443 28.1839154,36.7432346 27.713397,36.9808728 C27.2428786,37.218511 26.7044044,37.3373284 26.0979585,37.3373284 C25.5751602,37.3373284 25.1151046,37.2159281 24.717778,36.9731238 C24.3204513,36.7303195 24.012005,36.3971143 23.7924297,35.9734983 C23.5728544,35.5498823 23.4630684,35.0797789 23.4630684,34.563174 C23.4630684,33.9225839 23.6434311,33.3569101 24.0041619,32.8661354 C24.3648927,32.3753608 24.8484739,31.969832 25.4549198,31.649537 C26.8037393,30.9676185 28.5184919,30.6266644 30.5992289,30.6266644 C31.8225769,30.6266644 32.8577019,30.7428988 33.7046351,30.975371 C34.5515682,31.2078432 35.2625632,31.6237039 35.8376413,32.2229656 C36.2558799,32.6569137 36.5355728,33.2070896 36.6767283,33.8735099 C36.8178838,34.5399302 36.8884605,35.4723881 36.8884605,36.6709114 L36.8884605,45.1638533 C36.8884605,45.6701261 36.9250559,46.0239952 36.9982476,46.2254711 C37.0714394,46.426947 37.1969091,46.5276834 37.3746605,46.5276834 C37.5419559,46.5276834 37.6961791,46.4889386 37.8373346,46.4114479 C37.9784901,46.3339572 38.1588528,46.2177228 38.3784281,46.0627414 L38.6921055,46.6051738 C38.1902192,47.0184577 37.6046939,47.315501 36.9355121,47.4963128 C36.2663304,47.6771245 35.4612331,47.767529 34.5201963,47.767529 C33.390952,47.767529 32.5623292,47.5428092 32.034303,47.093363 C31.5062767,46.6439167 31.2318118,46.0679109 31.2108999,45.3653282 C30.7612934,46.0989072 30.1287169,46.6826619 29.3131517,47.1166101 C28.4975864,47.5505582 27.5983869,47.767529 26.6155262,47.767529 C25.3503544,47.767529 24.3596665,47.4369068 23.6434329,46.7756525 C22.9271993,46.1143983 22.5690879,45.2310172 22.5690879,44.1254827 C22.5690879,43.0406124 22.8984458,42.1365674 23.5571716,41.4133206 C24.2158974,40.6900737 25.2457946,40.101153 26.6468939,39.6465407 C27.7865941,39.2435889 28.6309006,38.9258816 29.1798388,38.6934094 C29.7287769,38.4609372 30.1888325,38.1819748 30.5600193,37.8565137 C30.931206,37.5310526 31.1167966,37.1461878 31.1167966,36.7019076 L31.1167966,33.8657609 Z M31.1167966,38.0037454 C30.9599572,38.2620478 30.5417248,38.7269852 29.8620871,39.3985716 C28.8164906,40.4007851 28.2937002,41.5941245 28.2937002,42.9786256 C28.2937002,44.4767798 28.8374022,45.2258456 29.9248226,45.2258456 C30.3744291,45.2258456 30.7717498,45.0502026 31.1167966,44.6989113 L31.1167966,38.0037454 Z M40.9348988,41.4288187 C41.0708263,42.5653494 41.3243797,43.5675479 41.6955665,44.4354441 C42.0667532,45.3033403 42.5477204,45.9800826 43.1384824,46.4656911 C43.7292445,46.9512997 44.406258,47.1941004 45.1695435,47.1941004 C45.7132537,47.1941004 46.1602395,47.0468702 46.5105143,46.7524054 C46.8607892,46.4579406 47.0359239,46.026582 47.0359239,45.4583167 C47.0359239,44.8693871 46.9130682,44.339875 46.667353,43.8697646 C46.4216378,43.3996541 46.1210333,42.9812104 45.7655305,42.614421 C45.4100277,42.2476315 44.8401862,41.7129534 44.0559888,41.0103708 C43.1463198,40.183803 42.4588504,39.5277246 41.99356,39.042116 C41.5282695,38.5565074 41.1283349,37.9908335 40.793744,37.3450774 C40.4591531,36.6993213 40.2918602,35.9838343 40.2918602,35.1985948 C40.2918602,34.2893702 40.5689391,33.4886447 41.1231052,32.7963941 C41.6772714,32.1041436 42.4144059,31.5694655 43.3345308,31.192344 C44.2546557,30.8152224 45.2531854,30.6266644 46.3301498,30.6266644 C47.177083,30.6266644 47.9638826,30.7170689 48.6905722,30.8978806 C49.4172617,31.0786924 49.9792614,31.2775822 50.3765881,31.4945563 C50.5961634,31.6185415 50.7895958,31.6805331 50.9568913,31.6805331 C51.3855858,31.6805331 51.6522089,31.339579 51.7567686,30.6576606 L52.3998072,30.6576606 C52.3161595,31.763195 52.2743363,33.6694385 52.2743363,36.3764481 L51.6312976,36.3764481 C51.4640022,34.991947 51.0640675,33.8166885 50.4314816,32.8506374 C49.7988958,31.8845862 48.8813986,31.4015679 47.6789626,31.4015679 C47.1352524,31.4015679 46.6830387,31.561713 46.3223079,31.882008 C45.9615771,32.2023031 45.7812144,32.6310787 45.7812144,33.1683478 C45.7812144,33.8812625 46.021698,34.5089281 46.5026724,35.0513632 C46.9836468,35.5937983 47.5508744,36.1155614 48.2043722,36.6166682 C48.85787,37.1177749 49.3362233,37.4923078 49.6394462,37.7402782 C50.4340996,38.3912004 51.066676,38.9542912 51.5371944,39.4295677 C52.0077129,39.9048442 52.3867359,40.4446882 52.6742749,41.049116 C52.961814,41.6535437 53.1055814,42.3380349 53.1055814,43.1026101 C53.1055814,44.042831 52.8154327,44.8874674 52.2351266,45.6365444 C51.6548205,46.3856215 50.8706349,46.9667933 49.8825462,47.3800772 C48.8944575,47.7933611 47.8096674,48 46.6281433,48 C45.2897798,48 44.186692,47.7313695 43.3188469,47.1941004 C42.6287532,46.8428091 42.0902791,46.667166 41.7034084,46.667166 C41.2956258,46.667166 40.9976352,47.03395 40.8094278,47.767529 L40.1663892,47.767529 C40.2500369,46.5586735 40.2918602,44.4457912 40.2918602,41.4288187 L40.9348988,41.4288187 Z M63.3314641,33.8657609 C63.3314641,33.1941745 63.1615572,32.5923389 62.8217384,32.0602358 C62.4819195,31.5281328 61.857185,31.2620853 60.947516,31.2620853 C60.6756609,31.2620853 60.3855122,31.313745 60.0770612,31.417066 C59.7686103,31.5203869 59.4941453,31.6495362 59.2536581,31.8045177 C60.6861253,32.3314547 61.4023482,33.2871594 61.4023482,34.6716605 C61.4023482,35.1676012 61.2742645,35.6170407 61.0180934,36.0199925 C60.7619223,36.4229443 60.3985829,36.7432346 59.9280645,36.9808728 C59.4575461,37.218511 58.9190719,37.3373284 58.312626,37.3373284 C57.7898277,37.3373284 57.3297721,37.2159281 56.9324455,36.9731238 C56.5351188,36.7303195 56.2266724,36.3971143 56.0070972,35.9734983 C55.7875219,35.5498823 55.6777359,35.0797789 55.6777359,34.563174 C55.6777359,33.9225839 55.8580986,33.3569101 56.2188294,32.8661354 C56.5795602,32.3753608 57.0631413,31.969832 57.6695873,31.649537 C59.0184068,30.9676185 60.7331594,30.6266644 62.8138964,30.6266644 C64.0372444,30.6266644 65.0723694,30.7428988 65.9193025,30.975371 C66.7662357,31.2078432 67.4772307,31.6237039 68.0523088,32.2229656 C68.4705474,32.6569137 68.7502402,33.2070896 68.8913958,33.8735099 C69.0325513,34.5399302 69.103128,35.4723881 69.103128,36.6709114 L69.103128,45.1638533 C69.103128,45.6701261 69.1397233,46.0239952 69.2129151,46.2254711 C69.2861069,46.426947 69.4115766,46.5276834 69.589328,46.5276834 C69.7566234,46.5276834 69.9108466,46.4889386 70.0520021,46.4114479 C70.1931576,46.3339572 70.3735203,46.2177228 70.5930956,46.0627414 L70.906773,46.6051738 C70.4048867,47.0184577 69.8193614,47.315501 69.1501796,47.4963128 C68.4809979,47.6771245 67.6759006,47.767529 66.7348638,47.767529 C65.6056195,47.767529 64.7769967,47.5428092 64.2489705,47.093363 C63.7209442,46.6439167 63.4464793,46.0679109 63.4255673,45.3653282 C62.9759608,46.0989072 62.3433844,46.6826619 61.5278192,47.1166101 C60.7122539,47.5505582 59.8130544,47.767529 58.8301936,47.767529 C57.5650219,47.767529 56.574334,47.4369068 55.8581004,46.7756525 C55.1418668,46.1143983 54.7837554,45.2310172 54.7837554,44.1254827 C54.7837554,43.0406124 55.1131133,42.1365674 55.7718391,41.4133206 C56.4305649,40.6900737 57.4604621,40.101153 58.8615614,39.6465407 C60.0012616,39.2435889 60.8455681,38.9258816 61.3945063,38.6934094 C61.9434444,38.4609372 62.4035,38.1819748 62.7746868,37.8565137 C63.1458735,37.5310526 63.3314641,37.1461878 63.3314641,36.7019076 L63.3314641,33.8657609 Z M63.3314641,38.0037454 C63.1746246,38.2620478 62.7563923,38.7269852 62.0767546,39.3985716 C61.0311581,40.4007851 60.5083677,41.5941245 60.5083677,42.9786256 C60.5083677,44.4767798 61.0520697,45.2258456 62.1394901,45.2258456 C62.5890966,45.2258456 62.9864173,45.0502026 63.3314641,44.6989113 L63.3314641,38.0037454 Z M101.035486,25.7137765 C100.366304,25.8584259 99.8748811,26.0857286 99.5612021,26.3956915 C99.2475232,26.7056545 99.0357931,27.1783409 98.9260054,27.8137649 C98.8162178,28.4491889 98.7613248,29.3971446 98.7613248,30.6576606 L98.7613248,47.550556 C98.4476459,47.5195597 98.0973763,47.5040618 97.7105056,47.5040618 C97.3340908,47.5040618 96.9315422,47.5195597 96.5028476,47.550556 L82.2775782,32.1919694 L82.2775782,41.3358302 C82.2775782,42.895977 82.3403131,44.0169928 82.4657846,44.6989113 C82.5912562,45.3808297 82.873563,45.8845119 83.3127136,46.209973 C83.7518641,46.5354341 84.4889986,46.7704858 85.5241391,46.9151352 L85.5241391,47.550556 C84.66675,47.4885634 83.464332,47.4575676 81.9168492,47.4575676 C80.787605,47.4575676 79.8988613,47.4885634 79.2505914,47.550556 L79.2505914,46.9151352 C79.9197732,46.7704858 80.4138101,46.543183 80.7327171,46.2332201 C81.051624,45.9232572 81.2659681,45.4505708 81.3757557,44.8151468 C81.4855434,44.1797228 81.5404363,43.231767 81.5404363,41.9712511 L81.5404363,28.4414367 C81.5404363,27.6458651 81.4829294,27.0672763 81.3679138,26.7056529 C81.2528982,26.3440295 81.041168,26.0960629 80.7327171,25.9617456 C80.4242661,25.8274283 79.9302292,25.7447728 79.2505914,25.7137765 L79.2505914,25.0783557 C79.8988613,25.1403482 80.787605,25.1713441 81.9168492,25.1713441 C83.0983733,25.1713441 84.0864471,25.1403482 84.8811005,25.0783557 L98.0084991,38.7941469 L98.0084991,31.2930814 C98.0084991,29.7329346 97.9457642,28.6119188 97.8202926,27.9300004 C97.6948211,27.2480819 97.4151282,26.7443997 96.9812056,26.4189386 C96.5472831,26.0934776 95.8127626,25.8584259 94.777622,25.7137765 L94.777622,25.0783557 C95.6454671,25.1403482 96.8426572,25.1713441 98.3692281,25.1713441 C99.5089283,25.1713441 100.397672,25.1403482 101.035486,25.0783557 L101.035486,25.7137765 Z M111.057478,30.6266644 C113.692382,30.6266644 115.726036,31.3111556 117.158503,32.6801586 C118.590971,34.0491616 119.307194,36.2679463 119.307194,39.3365793 C119.307194,42.3948803 118.590971,44.603333 117.158503,45.9620039 C115.726036,47.3206748 113.692382,48 111.057478,48 C108.412119,48 106.373237,47.3206748 104.940769,45.9620039 C103.508302,44.603333 102.792079,42.3948803 102.792079,39.3365793 C102.792079,36.2679463 103.510916,34.0491616 104.948611,32.6801586 C106.386306,31.3111556 108.422575,30.6266644 111.057478,30.6266644 Z M111.057478,31.2620853 C110.377841,31.2620853 109.831525,31.9284956 109.418514,33.2613362 C109.005503,34.5941768 108.799001,36.6192376 108.799001,39.3365793 C108.799001,42.0435889 109.005503,44.0583178 109.418514,45.3808263 C109.831525,46.7033348 110.377841,47.3645792 111.057478,47.3645792 C111.737116,47.3645792 112.280818,46.7033348 112.688601,45.3808263 C113.096383,44.0583178 113.300272,42.0435889 113.300272,39.3365793 C113.300272,36.6192376 113.096383,34.5941768 112.688601,33.2613362 C112.280818,31.9284956 111.737116,31.2620853 111.057478,31.2620853 Z M122.33418,41.4288187 C122.470108,42.5653494 122.723661,43.5675479 123.094848,44.4354441 C123.466035,45.3033403 123.947002,45.9800826 124.537764,46.4656911 C125.128526,46.9512997 125.80554,47.1941004 126.568825,47.1941004 C127.112535,47.1941004 127.559521,47.0468702 127.909796,46.7524054 C128.260071,46.4579406 128.435205,46.026582 128.435205,45.4583167 C128.435205,44.8693871 128.31235,44.339875 128.066635,43.8697646 C127.820919,43.3996541 127.520315,42.9812104 127.164812,42.614421 C126.809309,42.2476315 126.239468,41.7129534 125.45527,41.0103708 C124.545601,40.183803 123.858132,39.5277246 123.392841,39.042116 C122.927551,38.5565074 122.527616,37.9908335 122.193025,37.3450774 C121.858435,36.6993213 121.691142,35.9838343 121.691142,35.1985948 C121.691142,34.2893702 121.968221,33.4886447 122.522387,32.7963941 C123.076553,32.1041436 123.813687,31.5694655 124.733812,31.192344 C125.653937,30.8152224 126.652467,30.6266644 127.729431,30.6266644 C128.576365,30.6266644 129.363164,30.7170689 130.089854,30.8978806 C130.816543,31.0786924 131.378543,31.2775822 131.77587,31.4945563 C131.995445,31.6185415 132.188877,31.6805331 132.356173,31.6805331 C132.784867,31.6805331 133.05149,31.339579 133.15605,30.6576606 L133.799089,30.6576606 C133.715441,31.763195 133.673618,33.6694385 133.673618,36.3764481 L133.030579,36.3764481 C132.863284,34.991947 132.463349,33.8166885 131.830763,32.8506374 C131.198177,31.8845862 130.28068,31.4015679 129.078244,31.4015679 C128.534534,31.4015679 128.08232,31.561713 127.721589,31.882008 C127.360859,32.2023031 127.180496,32.6310787 127.180496,33.1683478 C127.180496,33.8812625 127.42098,34.5089281 127.901954,35.0513632 C128.382928,35.5937983 128.950156,36.1155614 129.603654,36.6166682 C130.257152,37.1177749 130.735505,37.4923078 131.038728,37.7402782 C131.833381,38.3912004 132.465958,38.9542912 132.936476,39.4295677 C133.406994,39.9048442 133.786017,40.4446882 134.073556,41.049116 C134.361096,41.6535437 134.504863,42.3380349 134.504863,43.1026101 C134.504863,44.042831 134.214714,44.8874674 133.634408,45.6365444 C133.054102,46.3856215 132.269916,46.9667933 131.281828,47.3800772 C130.293739,47.7933611 129.208949,48 128.027425,48 C126.689061,48 125.585974,47.7313695 124.718128,47.1941004 C124.028035,46.8428091 123.489561,46.667166 123.10269,46.667166 C122.694907,46.667166 122.396917,47.03395 122.208709,47.767529 L121.565671,47.767529 C121.649318,46.5586735 121.691142,44.4457912 121.691142,41.4288187 L122.33418,41.4288187 Z M146.738281,31.1071046 L146.738281,31.7425254 L143.585823,31.7425254 L143.585823,44.8848881 C143.585823,45.298172 143.659014,45.5926324 143.805397,45.768278 C143.951781,45.9439237 144.20272,46.0317452 144.558223,46.0317452 C144.819622,46.0317452 145.107157,45.9568386 145.420836,45.8070232 C145.734515,45.6572078 146.02205,45.4221561 146.283449,45.1018611 L146.769649,45.4893128 C145.786788,47.1631126 144.265468,48 142.205643,48 C140.731352,48 139.628264,47.638382 138.896346,46.9151352 C138.457196,46.481187 138.164433,45.9335941 138.01805,45.2723398 C137.871666,44.6110856 137.798475,43.6863767 137.798475,42.4981854 L137.798475,31.7425254 L135.367476,31.7425254 L135.367476,31.1071046 L137.798475,31.1071046 L137.798475,27.3255757 C138.959088,27.3255757 140.004668,27.2145073 140.935249,26.9923672 C141.86583,26.7702271 142.749346,26.4163581 143.585823,25.9307495 L143.585823,31.1071046 L146.738281,31.1071046 Z M154.972312,33.0133671 C155.808789,31.422224 157.194184,30.6266644 159.128538,30.6266644 C160.174134,30.6266644 160.926952,30.9443717 161.387015,31.5797957 C161.847077,32.2152197 162.077105,32.9668685 162.077105,33.8347648 C162.077105,34.7853177 161.807868,35.5421326 161.269386,36.1052319 C160.730904,36.6683312 160.017295,36.9498767 159.128538,36.9498767 C158.197957,36.9498767 157.486962,36.7458208 156.995531,36.3377029 C156.504101,35.9295851 156.25839,35.3742431 156.25839,34.6716605 C156.25839,33.4111446 156.807319,32.424444 157.905196,31.7115293 C157.518325,31.7115293 157.173283,31.7838529 156.87006,31.9285022 C156.32635,32.1558084 155.874137,32.5303413 155.513406,33.0521123 C155.152675,33.5738832 154.972312,34.144723 154.972312,34.7646489 L154.972312,44.2804634 C154.972312,44.9520497 155.066415,45.4763958 155.254622,45.8535174 C155.442829,46.230639 155.735592,46.4966865 156.132919,46.651668 C156.530245,46.8066494 157.063491,46.884139 157.732673,46.884139 L157.732673,47.550556 C155.09777,47.4678992 153.367334,47.4265714 152.541313,47.4265714 C151.746659,47.4265714 150.031907,47.4678992 147.397003,47.550556 L147.397003,46.884139 C147.84661,46.884139 148.202107,46.8169814 148.463507,46.6826641 C148.724906,46.5483468 148.91311,46.3158781 149.028126,45.985251 C149.143141,45.6546239 149.200648,45.1948524 149.200648,44.6059228 L149.200648,34.5321779 C149.200648,33.5506286 149.064723,32.8403075 148.792868,32.4011934 C148.521013,31.9620792 148.055729,31.7425254 147.397003,31.7425254 L147.397003,31.0761084 C148.076641,31.138101 148.740585,31.1690969 149.388855,31.1690969 C151.615975,31.1690969 153.477109,31.0244497 154.972312,30.7351509 L154.972312,33.0133671 Z M171.424691,33.8657609 C171.424691,33.1941745 171.254784,32.5923389 170.914965,32.0602358 C170.575147,31.5281328 169.950412,31.2620853 169.040743,31.2620853 C168.768888,31.2620853 168.478739,31.313745 168.170288,31.417066 C167.861837,31.5203869 167.587372,31.6495362 167.346885,31.8045177 C168.779352,32.3314547 169.495575,33.2871594 169.495575,34.6716605 C169.495575,35.1676012 169.367492,35.6170407 169.11132,36.0199925 C168.855149,36.4229443 168.49181,36.7432346 168.021292,36.9808728 C167.550773,37.218511 167.012299,37.3373284 166.405853,37.3373284 C165.883055,37.3373284 165.422999,37.2159281 165.025672,36.9731238 C164.628346,36.7303195 164.319899,36.3971143 164.100324,35.9734983 C163.880749,35.5498823 163.770963,35.0797789 163.770963,34.563174 C163.770963,33.9225839 163.951326,33.3569101 164.312056,32.8661354 C164.672787,32.3753608 165.156368,31.969832 165.762814,31.649537 C167.111634,30.9676185 168.826386,30.6266644 170.907123,30.6266644 C172.130471,30.6266644 173.165596,30.7428988 174.01253,30.975371 C174.859463,31.2078432 175.570458,31.6237039 176.145536,32.2229656 C176.563774,32.6569137 176.843467,33.2070896 176.984623,33.8735099 C177.125778,34.5399302 177.196355,35.4723881 177.196355,36.6709114 L177.196355,45.1638533 C177.196355,45.6701261 177.23295,46.0239952 177.306142,46.2254711 C177.379334,46.426947 177.504804,46.5276834 177.682555,46.5276834 C177.84985,46.5276834 178.004074,46.4889386 178.145229,46.4114479 C178.286385,46.3339572 178.466747,46.2177228 178.686323,46.0627414 L179,46.6051738 C178.498114,47.0184577 177.912588,47.315501 177.243407,47.4963128 C176.574225,47.6771245 175.769128,47.767529 174.828091,47.767529 C173.698847,47.767529 172.870224,47.5428092 172.342197,47.093363 C171.814171,46.6439167 171.539706,46.0679109 171.518794,45.3653282 C171.069188,46.0989072 170.436611,46.6826619 169.621046,47.1166101 C168.805481,47.5505582 167.906281,47.767529 166.923421,47.767529 C165.658249,47.767529 164.667561,47.4369068 163.951327,46.7756525 C163.235094,46.1143983 162.876982,45.2310172 162.876982,44.1254827 C162.876982,43.0406124 163.20634,42.1365674 163.865066,41.4133206 C164.523792,40.6900737 165.553689,40.101153 166.954788,39.6465407 C168.094489,39.2435889 168.938795,38.9258816 169.487733,38.6934094 C170.036671,38.4609372 170.496727,38.1819748 170.867914,37.8565137 C171.239101,37.5310526 171.424691,37.1461878 171.424691,36.7019076 L171.424691,33.8657609 Z M171.424691,38.0037454 C171.267852,38.2620478 170.849619,38.7269852 170.169982,39.3985716 C169.124385,40.4007851 168.601595,41.5941245 168.601595,42.9786256 C168.601595,44.4767798 169.145297,45.2258456 170.232717,45.2258456 C170.682324,45.2258456 171.079644,45.0502026 171.424691,44.6989113 L171.424691,38.0037454 Z" id="PIZZERIA-Casa-Nostra"></path>
            </g>
        </g>
    </g>
</svg>