<?xml version="1.0" encoding="UTF-8"?>
<svg width="250px" height="250px" viewBox="0 0 250 250" version="1.1" xmlns="http://www.w3.org/2000/svg" xmlns:xlink="http://www.w3.org/1999/xlink">
    <!-- Generator: Sketch 51.2 (57519) - http://www.bohemiancoding.com/sketch -->
    <title>Group 19</title>
    <desc>Created with Sketch.</desc>
    <defs></defs>
    <g id="Website-8/29/18" stroke="none" stroke-width="1" fill="none" fill-rule="evenodd">
        <g id="Homepage---Large" transform="translate(-47.000000, 0.000000)">
            <g id="Group-19" transform="translate(47.000000, 0.000000)">
                <rect id="Rectangle-7" fill="#000000" x="0" y="0" width="250" height="250"></rect>
                <path d="M60,172.3125 L60,158.125 C60,157.819443 60.1944425,157.652778 60.5833333,157.625 L64.4166667,157.625 C65.7222288,157.625 66.763885,157.979163 67.5416667,158.6875 C68.3194483,159.395837 68.7083333,160.513881 68.7083333,162.041667 L68.7083333,162.25 C68.7083333,163.777785 68.3159761,164.899302 67.53125,165.614583 C66.7465239,166.329865 65.694451,166.6875 64.375,166.6875 L61.375,166.6875 L61.375,172.3125 C61.375,172.479167 61.3055563,172.611111 61.1666667,172.708333 C61.0277771,172.805556 60.8680565,172.854167 60.6875,172.854167 C60.4930546,172.854167 60.3298618,172.805556 60.1979167,172.708333 C60.0659716,172.611111 60,172.479167 60,172.3125 Z M61.375,165.5 L64.375,165.5 C65.3194492,165.5 66.0486085,165.236114 66.5625,164.708333 C67.0763915,164.180553 67.3333333,163.38195 67.3333333,162.3125 L67.3333333,162.0625 C67.3333333,159.951378 66.3472321,158.895833 64.375,158.895833 L61.375,158.895833 L61.375,165.5 Z M78.4791667,172.3125 L78.4791667,158.125 C78.4791667,157.791665 78.708331,157.625 79.1666667,157.625 C79.6250023,157.625 79.8541667,157.791665 79.8541667,158.125 L79.8541667,172.3125 C79.8541667,172.479167 79.7847229,172.611111 79.6458333,172.708333 C79.5069438,172.805556 79.3472231,172.854167 79.1666667,172.854167 C78.9722213,172.854167 78.8090284,172.805556 78.6770833,172.708333 C78.5451382,172.611111 78.4791667,172.479167 78.4791667,172.3125 Z M89.4375,172.375 C89.4375,172.222221 89.4791663,172.062501 89.5625,171.895833 L96.5,158.895833 L90.2083333,158.895833 C90.0555548,158.895833 89.930556,158.833334 89.8333333,158.708333 C89.7361106,158.583333 89.6875,158.430556 89.6875,158.25 C89.6875,158.083332 89.7326384,157.937501 89.8229167,157.8125 C89.9131949,157.687499 90.0416658,157.625 90.2083333,157.625 L97.7708333,157.625 C98.1180573,157.625 98.2916667,157.770832 98.2916667,158.0625 C98.2916667,158.229167 98.2361117,158.409721 98.125,158.604167 L91.2083333,171.583333 L98.0208333,171.583333 C98.1875008,171.583333 98.3159718,171.645833 98.40625,171.770833 C98.4965282,171.895834 98.5416667,172.041666 98.5416667,172.208333 C98.5416667,172.375001 98.4965282,172.524305 98.40625,172.65625 C98.3159718,172.788195 98.1875008,172.854167 98.0208333,172.854167 L89.9375,172.854167 C89.604165,172.854167 89.4375,172.694446 89.4375,172.375 Z M107.020833,172.375 C107.020833,172.222221 107.0625,172.062501 107.145833,171.895833 L114.083333,158.895833 L107.791667,158.895833 C107.638888,158.895833 107.513889,158.833334 107.416667,158.708333 C107.319444,158.583333 107.270833,158.430556 107.270833,158.25 C107.270833,158.083332 107.315972,157.937501 107.40625,157.8125 C107.496528,157.687499 107.624999,157.625 107.791667,157.625 L115.354167,157.625 C115.701391,157.625 115.875,157.770832 115.875,158.0625 C115.875,158.229167 115.819445,158.409721 115.708333,158.604167 L108.791667,171.583333 L115.604167,171.583333 C115.770834,171.583333 115.899305,171.645833 115.989583,171.770833 C116.079862,171.895834 116.125,172.041666 116.125,172.208333 C116.125,172.375001 116.079862,172.524305 115.989583,172.65625 C115.899305,172.788195 115.770834,172.854167 115.604167,172.854167 L107.520833,172.854167 C107.187498,172.854167 107.020833,172.694446 107.020833,172.375 Z M125.6875,172.3125 L125.6875,158.145833 C125.6875,157.979166 125.749999,157.850695 125.875,157.760417 C126.000001,157.670138 126.145833,157.625 126.3125,157.625 L133.729167,157.625 C134.076391,157.625 134.25,157.826387 134.25,158.229167 C134.25,158.409723 134.204862,158.565972 134.114583,158.697917 C134.024305,158.829862 133.895834,158.895833 133.729167,158.895833 L127.0625,158.895833 L127.0625,164.625 L130.333333,164.625 C130.500001,164.625 130.628472,164.684027 130.71875,164.802083 C130.809028,164.920139 130.854167,165.069444 130.854167,165.25 C130.854167,165.625002 130.680557,165.8125 130.333333,165.8125 L127.0625,165.8125 L127.0625,171.583333 L133.729167,171.583333 C133.881945,171.583333 134.006944,171.645833 134.104167,171.770833 C134.201389,171.895834 134.25,172.04861 134.25,172.229167 C134.25,172.645835 134.076391,172.854167 133.729167,172.854167 L126.3125,172.854167 C126.145833,172.854167 126.000001,172.805556 125.875,172.708333 C125.749999,172.611111 125.6875,172.479167 125.6875,172.3125 Z M143.770833,172.3125 L143.770833,158.125 C143.770833,157.819443 143.944443,157.652778 144.291667,157.625 L147.979167,157.625 C149.326396,157.625 150.41319,157.944441 151.239583,158.583333 C152.065976,159.222225 152.479167,160.270826 152.479167,161.729167 C152.479167,164.034734 151.395844,165.374998 149.229167,165.75 L152.4375,171.916667 C152.493056,171.986111 152.520833,172.076388 152.520833,172.1875 C152.520833,172.368056 152.437501,172.531249 152.270833,172.677083 C152.104166,172.822917 151.923612,172.895833 151.729167,172.895833 C151.479165,172.895833 151.236112,172.65278 151,172.166667 L147.791667,165.916667 L145.145833,165.916667 L145.145833,172.3125 C145.145833,172.479167 145.07639,172.611111 144.9375,172.708333 C144.79861,172.805556 144.63889,172.854167 144.458333,172.854167 C144.263888,172.854167 144.100695,172.805556 143.96875,172.708333 C143.836805,172.611111 143.770833,172.479167 143.770833,172.3125 Z M145.145833,164.729167 L147.979167,164.729167 C150.06251,164.729167 151.104167,163.75001 151.104167,161.791667 C151.104167,159.861101 150.06251,158.895833 147.979167,158.895833 L145.145833,158.895833 L145.145833,164.729167 Z M162.291667,172.3125 L162.291667,158.125 C162.291667,157.791665 162.520831,157.625 162.979167,157.625 C163.437502,157.625 163.666667,157.791665 163.666667,158.125 L163.666667,172.3125 C163.666667,172.479167 163.597223,172.611111 163.458333,172.708333 C163.319444,172.805556 163.159723,172.854167 162.979167,172.854167 C162.784721,172.854167 162.621528,172.805556 162.489583,172.708333 C162.357638,172.611111 162.291667,172.479167 162.291667,172.3125 Z M173.1875,172.270833 C173.1875,172.201389 173.194444,172.152778 173.208333,172.125 L177.5625,157.979167 C177.659723,157.659721 177.930553,157.5 178.375,157.5 C178.819447,157.5 179.097222,157.659721 179.208333,157.979167 L183.541667,172.125 C183.541667,172.138889 183.545139,172.159722 183.552083,172.1875 C183.559028,172.215278 183.5625,172.236111 183.5625,172.25 C183.5625,172.416667 183.472223,172.559027 183.291667,172.677083 C183.11111,172.795139 182.923612,172.854167 182.729167,172.854167 C182.465276,172.854167 182.291667,172.736112 182.208333,172.5 L181.25,169.291667 L175.479167,169.291667 L174.520833,172.5 C174.465277,172.736112 174.284724,172.854167 173.979167,172.854167 C173.784721,172.854167 173.604168,172.798612 173.4375,172.6875 C173.270833,172.576388 173.1875,172.437501 173.1875,172.270833 Z M175.833333,168.104167 L180.895833,168.104167 L178.375,159.708333 L175.833333,168.104167 Z" id="PIZZERIA" fill="#FFFFFF"></path>
                <path d="M50.2669271,208.655599 C50.2126733,207.961151 50.123156,207.459311 49.9983724,207.150065 C49.8735888,206.840819 49.6918415,206.686198 49.453125,206.686198 C49.279513,206.686198 49.0516507,206.778428 48.7695312,206.962891 C48.1184863,207.418622 47.5135662,207.798393 46.9547526,208.102214 C46.395939,208.406035 45.7557545,208.652885 45.0341797,208.842773 C44.3126049,209.032662 43.5015236,209.127604 42.6009115,209.127604 C40.246299,209.127604 38.181975,208.650178 36.4078776,207.695312 C34.6337802,206.740447 33.2611811,205.354284 32.2900391,203.536784 C31.3188971,201.719283 30.8333333,199.557304 30.8333333,197.050781 C30.8333333,194.598512 31.3324603,192.428395 32.3307292,190.540365 C33.328998,188.652334 34.7232983,187.187505 36.5136719,186.145833 C38.3040454,185.104161 40.3439556,184.583333 42.6334635,184.583333 C43.9572549,184.583333 45.0884285,184.773219 46.0270182,185.152995 C46.965608,185.532771 47.8797699,186.06445 48.7695312,186.748047 C49.0190985,186.94336 49.2361102,187.041016 49.4205729,187.041016 C49.8763044,187.041016 50.1584196,186.37913 50.2669271,185.055339 L51.031901,185.055339 C50.9450951,186.563593 50.9016927,189.254538 50.9016927,193.128255 L50.1367187,193.128255 C49.995659,192.010628 49.8410382,191.101892 49.6728516,190.402018 C49.504665,189.702145 49.2605268,189.086374 48.9404297,188.554687 C48.6203326,188.023001 48.1835965,187.534724 47.6302083,187.089844 C47.0768201,186.558157 46.4312103,186.153973 45.6933594,185.877279 C44.9555085,185.600585 44.1905422,185.46224 43.3984375,185.46224 C41.8684819,185.46224 40.609814,185.988493 39.6223958,187.041016 C38.6349777,188.093538 37.9134137,189.482413 37.4576823,191.207682 C37.0019508,192.932951 36.7740885,194.837229 36.7740885,196.920573 C36.7740885,199.003917 37.0128014,200.908194 37.4902344,202.633464 C37.9676673,204.358733 38.7136451,205.73947 39.7281901,206.775716 C40.7427351,207.811963 42.009541,208.330078 43.5286458,208.330078 C44.299049,208.330078 45.0531647,208.189021 45.7910156,207.906901 C46.5288665,207.624782 47.1527752,207.217885 47.6627604,206.686198 C48.2269993,206.252168 48.6691607,205.750328 48.9892578,205.180664 C49.3093549,204.611 49.5480678,203.951827 49.7054036,203.203125 C49.8627395,202.454423 50.0065098,201.472445 50.1367187,200.257161 L50.9016927,200.257161 C50.9016927,204.282789 50.9450951,207.08224 51.031901,208.655599 L50.2669271,208.655599 Z M62.9296875,194.593099 C62.9296875,193.670785 62.7099631,192.943796 62.2705078,192.412109 C61.8310525,191.880423 61.1447529,191.614583 60.2115885,191.614583 C59.7775586,191.614583 59.3435352,191.682399 58.9095052,191.818034 C58.4754753,191.953668 58.1174059,192.157117 57.8352865,192.428385 C58.4537791,192.63455 58.9366302,192.957355 59.2838542,193.39681 C59.6310781,193.836265 59.8046875,194.386932 59.8046875,195.048828 C59.8046875,195.50456 59.693469,195.914169 59.4710286,196.277669 C59.2485883,196.641169 58.9312087,196.92871 58.5188802,197.140299 C58.1065518,197.351889 57.6345513,197.457682 57.1028646,197.457682 C56.3867152,197.457682 55.8143468,197.213544 55.3857422,196.72526 C54.9571376,196.236977 54.7428385,195.623919 54.7428385,194.886068 C54.7428385,193.735888 55.3613219,192.802738 56.5983073,192.086589 C57.9546509,191.337887 59.6473423,190.963542 61.6764323,190.963542 C63.9550895,190.963542 65.5772521,191.462669 66.5429687,192.460937 C67.0095509,192.92752 67.3242179,193.508026 67.4869792,194.202474 C67.6497404,194.896922 67.7311198,195.868049 67.7311198,197.115885 L67.7311198,206.181641 C67.7311198,206.724178 67.7826601,207.106661 67.8857422,207.329102 C67.9888243,207.551542 68.1705716,207.66276 68.4309896,207.66276 C68.7890643,207.66276 69.2013866,207.472875 69.6679687,207.093099 L70.0097656,207.66276 C69.4997804,208.08594 68.9464006,208.395181 68.3496094,208.590495 C67.7528182,208.785808 67.0366795,208.883464 66.2011719,208.883464 C65.072694,208.883464 64.2589001,208.6339 63.7597656,208.134766 C63.2606312,207.635631 63.0110677,206.984596 63.0110677,206.181641 C62.4685303,207.082253 61.7578169,207.757702 60.8789062,208.208008 C59.9999956,208.658314 59.0614199,208.883464 58.063151,208.883464 C56.7936134,208.883464 55.776371,208.549808 55.0113932,207.882487 C54.2464154,207.215166 53.8639323,206.284728 53.8639323,205.091146 C53.8639323,203.930116 54.2437028,202.969839 55.0032552,202.210286 C55.7628076,201.450734 56.9400962,200.777998 58.5351562,200.192057 C58.7087682,200.126953 59.2729987,199.912654 60.2278646,199.549154 C61.1827305,199.185654 61.8717427,198.814021 62.2949219,198.434245 C62.7181011,198.054469 62.9296875,197.636721 62.9296875,197.18099 L62.9296875,194.593099 Z M62.9296875,198.548177 C62.7886278,198.786894 62.5580528,199.033744 62.2379557,199.288737 C61.9178586,199.54373 61.4594214,199.855684 60.8626302,200.224609 C60.1573315,200.712893 59.6039517,201.26356 59.202474,201.876628 C58.8009963,202.489695 58.6002604,203.251949 58.6002604,204.163411 C58.6002604,205.031471 58.7901457,205.679794 59.1699219,206.108398 C59.5496981,206.537003 60.048825,206.751302 60.6673177,206.751302 C61.5462284,206.751302 62.3003441,206.295577 62.9296875,205.384115 L62.9296875,198.548177 Z M72.5325521,202.226562 C72.7495671,204.147145 73.2188549,205.649951 73.9404297,206.735026 C74.6620045,207.820101 75.6846722,208.36263 77.0084635,208.36263 C77.6595085,208.36263 78.215601,208.164607 78.6767578,207.768555 C79.1379146,207.372502 79.3684896,206.778433 79.3684896,205.986328 C79.3684896,205.367835 79.2301446,204.814456 78.9534505,204.326172 C78.6767564,203.837888 78.326825,203.403865 77.9036458,203.024089 C77.4804666,202.644312 76.8457074,202.123484 75.999349,201.461589 C74.9685278,200.626081 74.1954236,199.96962 73.680013,199.492187 C73.1646025,199.014755 72.7224411,198.447811 72.3535156,197.791341 C71.9845902,197.134871 71.8001302,196.388893 71.8001302,195.553385 C71.8001302,194.59852 72.0605443,193.773875 72.5813802,193.079427 C73.1022161,192.384979 73.8020789,191.858726 74.6809896,191.500651 C75.5599002,191.142576 76.5147518,190.963542 77.5455729,190.963542 C78.3919313,190.963542 79.1677482,191.066622 79.8730469,191.272786 C80.5783455,191.478951 81.1317254,191.717664 81.5332031,191.988932 C81.7502181,192.140843 81.9455286,192.216797 82.1191406,192.216797 C82.5314691,192.216797 82.7918831,191.8099 82.9003906,190.996094 L83.6328125,190.996094 C83.5460065,192.113721 83.5026042,194.066826 83.5026042,196.855469 L82.7701823,196.855469 C82.5748688,195.401468 82.1381327,194.178065 81.4599609,193.185221 C80.7817891,192.192378 79.7970985,191.695964 78.5058594,191.695964 C77.8439637,191.695964 77.3014344,191.885849 76.8782552,192.265625 C76.455076,192.645401 76.2434896,193.166229 76.2434896,193.828125 C76.2434896,194.576827 76.4930531,195.222437 76.9921875,195.764974 C77.4913219,196.307511 78.0935295,196.82834 78.7988281,197.327474 C79.5041268,197.826608 80.0195296,198.200954 80.3450521,198.450521 C81.256515,199.134118 81.9807916,199.7309 82.5179036,200.240885 C83.0550157,200.750871 83.4917518,201.328664 83.828125,201.974284 C84.1644982,202.619903 84.3326823,203.360456 84.3326823,204.195964 C84.3326823,205.172531 84.0478544,206.035153 83.4781901,206.783854 C82.9085258,207.532556 82.1408468,208.11035 81.1751302,208.517253 C80.2094136,208.924156 79.1514814,209.127604 78.0013021,209.127604 C76.8185705,209.127604 75.7877648,208.894317 74.9088542,208.427734 C74.2469585,208.091361 73.7261304,207.858074 73.3463542,207.727865 C73.2812497,207.706163 73.2269967,207.695312 73.1835937,207.695312 C72.825519,207.695312 72.565105,208.091359 72.4023437,208.883464 L71.6699219,208.883464 C71.7567279,207.613926 71.8001302,205.394981 71.8001302,202.226562 L72.5325521,202.226562 Z M95.5957031,194.593099 C95.5957031,193.670785 95.3759788,192.943796 94.9365234,192.412109 C94.4970681,191.880423 93.8107686,191.614583 92.8776042,191.614583 C92.4435742,191.614583 92.0095508,191.682399 91.5755208,191.818034 C91.1414909,191.953668 90.7834215,192.157117 90.5013021,192.428385 C91.1197948,192.63455 91.6026458,192.957355 91.9498698,193.39681 C92.2970937,193.836265 92.4707031,194.386932 92.4707031,195.048828 C92.4707031,195.50456 92.3594846,195.914169 92.1370443,196.277669 C91.9146039,196.641169 91.5972243,196.92871 91.1848958,197.140299 C90.7725674,197.351889 90.3005669,197.457682 89.7688802,197.457682 C89.0527308,197.457682 88.4803624,197.213544 88.0517578,196.72526 C87.6231532,196.236977 87.4088542,195.623919 87.4088542,194.886068 C87.4088542,193.735888 88.0273376,192.802738 89.2643229,192.086589 C90.6206665,191.337887 92.3133579,190.963542 94.3424479,190.963542 C96.6211051,190.963542 98.2432677,191.462669 99.2089844,192.460937 C99.6755666,192.92752 99.9902336,193.508026 100.152995,194.202474 C100.315756,194.896922 100.397135,195.868049 100.397135,197.115885 L100.397135,206.181641 C100.397135,206.724178 100.448676,207.106661 100.551758,207.329102 C100.65484,207.551542 100.836587,207.66276 101.097005,207.66276 C101.45508,207.66276 101.867402,207.472875 102.333984,207.093099 L102.675781,207.66276 C102.165796,208.08594 101.612416,208.395181 101.015625,208.590495 C100.418834,208.785808 99.7026951,208.883464 98.8671875,208.883464 C97.7387096,208.883464 96.9249157,208.6339 96.4257813,208.134766 C95.9266468,207.635631 95.6770833,206.984596 95.6770833,206.181641 C95.1345459,207.082253 94.4238325,207.757702 93.5449219,208.208008 C92.6660112,208.658314 91.7274355,208.883464 90.7291667,208.883464 C89.4596291,208.883464 88.4423866,208.549808 87.6774089,207.882487 C86.9124311,207.215166 86.5299479,206.284728 86.5299479,205.091146 C86.5299479,203.930116 86.9097184,202.969839 87.6692708,202.210286 C88.4288232,201.450734 89.6061118,200.777998 91.2011719,200.192057 C91.3747839,200.126953 91.9390143,199.912654 92.8938802,199.549154 C93.8487461,199.185654 94.5377583,198.814021 94.9609375,198.434245 C95.3841167,198.054469 95.5957031,197.636721 95.5957031,197.18099 L95.5957031,194.593099 Z M95.5957031,198.548177 C95.4546434,198.786894 95.2240684,199.033744 94.9039714,199.288737 C94.5838743,199.54373 94.125437,199.855684 93.5286458,200.224609 C92.8233472,200.712893 92.2699673,201.26356 91.8684896,201.876628 C91.4670119,202.489695 91.266276,203.251949 91.266276,204.163411 C91.266276,205.031471 91.4561613,205.679794 91.8359375,206.108398 C92.2157137,206.537003 92.7148407,206.751302 93.3333333,206.751302 C94.212244,206.751302 94.9663597,206.295577 95.5957031,205.384115 L95.5957031,198.548177 Z M133.535156,185.722656 C132.808156,185.820313 132.273765,186.007486 131.931966,186.28418 C131.590168,186.560874 131.35688,186.984047 131.232096,187.553711 C131.107313,188.123375 131.044922,188.977859 131.044922,190.117187 L131.044922,208.720703 C130.882161,208.709852 130.610896,208.704427 130.23112,208.704427 C129.840493,208.704427 129.542102,208.709852 129.335938,208.720703 L114.866536,190.39388 L114.866536,203.186849 C114.866536,204.49979 114.937065,205.462779 115.078125,206.075846 C115.219185,206.688914 115.509438,207.1365 115.948893,207.41862 C116.388349,207.700739 117.1072,207.890625 118.105469,207.988281 L118.105469,208.655599 C117.24826,208.590494 116.04927,208.557943 114.508464,208.557943 C113.282329,208.557943 112.316627,208.590494 111.611328,208.655599 L111.611328,207.988281 C112.338328,207.890625 112.87272,207.703452 113.214518,207.426758 C113.556317,207.150064 113.789604,206.726891 113.914388,206.157227 C114.039172,205.587562 114.101562,204.733079 114.101562,203.59375 L114.101562,188.58724 C114.101562,187.751732 114.039172,187.144099 113.914388,186.764323 C113.789604,186.384547 113.559029,186.124133 113.222656,185.983073 C112.886283,185.842013 112.349179,185.755208 111.611328,185.722656 L111.611328,185.055339 C112.316627,185.120443 113.282329,185.152995 114.508464,185.152995 C115.626091,185.152995 116.580942,185.120443 117.373047,185.055339 L130.279948,200.957031 L130.279948,190.524089 C130.279948,189.211148 130.209419,188.248158 130.068359,187.635091 C129.9273,187.022024 129.637046,186.574437 129.197591,186.292318 C128.758136,186.010198 128.039285,185.820313 127.041016,185.722656 L127.041016,185.055339 C127.898225,185.120443 129.097215,185.152995 130.638021,185.152995 C131.875006,185.152995 132.840708,185.120443 133.535156,185.055339 L133.535156,185.722656 Z M143.251953,190.963542 C145.791028,190.963542 147.784823,191.690531 149.233398,193.144531 C150.681973,194.598532 151.40625,196.904281 151.40625,200.061849 C151.40625,203.208566 150.681973,205.506178 149.233398,206.954753 C147.784823,208.403328 145.791028,209.127604 143.251953,209.127604 C140.712878,209.127604 138.71637,208.403328 137.26237,206.954753 C135.808369,205.506178 135.08138,203.208566 135.08138,200.061849 C135.08138,196.915132 135.808369,194.612095 137.26237,193.152669 C138.71637,191.693244 140.712878,190.963542 143.251953,190.963542 Z M143.251953,191.614583 C142.297087,191.614583 141.534834,192.309021 140.965169,193.697917 C140.395505,195.086812 140.110677,197.208102 140.110677,200.061849 C140.110677,202.904745 140.395505,205.015184 140.965169,206.393229 C141.534834,207.771274 142.297087,208.460286 143.251953,208.460286 C144.21767,208.460286 144.979923,207.773987 145.538737,206.401367 C146.097551,205.028747 146.376953,202.915596 146.376953,200.061849 C146.376953,197.197251 146.097551,195.073249 145.538737,193.689779 C144.979923,192.306308 144.21767,191.614583 143.251953,191.614583 Z M155.035807,202.226562 C155.252822,204.147145 155.72211,205.649951 156.443685,206.735026 C157.16526,207.820101 158.187927,208.36263 159.511719,208.36263 C160.162764,208.36263 160.718856,208.164607 161.180013,207.768555 C161.64117,207.372502 161.871745,206.778433 161.871745,205.986328 C161.871745,205.367835 161.7334,204.814456 161.456706,204.326172 C161.180012,203.837888 160.83008,203.403865 160.406901,203.024089 C159.983722,202.644312 159.348963,202.123484 158.502604,201.461589 C157.471783,200.626081 156.698679,199.96962 156.183268,199.492187 C155.667858,199.014755 155.225696,198.447811 154.856771,197.791341 C154.487845,197.134871 154.303385,196.388893 154.303385,195.553385 C154.303385,194.59852 154.563799,193.773875 155.084635,193.079427 C155.605471,192.384979 156.305334,191.858726 157.184245,191.500651 C158.063155,191.142576 159.018007,190.963542 160.048828,190.963542 C160.895187,190.963542 161.671003,191.066622 162.376302,191.272786 C163.081601,191.478951 163.634981,191.717664 164.036458,191.988932 C164.253473,192.140843 164.448784,192.216797 164.622396,192.216797 C165.034724,192.216797 165.295138,191.8099 165.403646,190.996094 L166.136068,190.996094 C166.049262,192.113721 166.005859,194.066826 166.005859,196.855469 L165.273438,196.855469 C165.078124,195.401468 164.641388,194.178065 163.963216,193.185221 C163.285044,192.192378 162.300354,191.695964 161.009115,191.695964 C160.347219,191.695964 159.80469,191.885849 159.38151,192.265625 C158.958331,192.645401 158.746745,193.166229 158.746745,193.828125 C158.746745,194.576827 158.996308,195.222437 159.495443,195.764974 C159.994577,196.307511 160.596785,196.82834 161.302083,197.327474 C162.007382,197.826608 162.522785,198.200954 162.848307,198.450521 C163.75977,199.134118 164.484047,199.7309 165.021159,200.240885 C165.558271,200.750871 165.995007,201.328664 166.33138,201.974284 C166.667753,202.619903 166.835938,203.360456 166.835938,204.195964 C166.835938,205.172531 166.55111,206.035153 165.981445,206.783854 C165.411781,207.532556 164.644102,208.11035 163.678385,208.517253 C162.712669,208.924156 161.654737,209.127604 160.504557,209.127604 C159.321826,209.127604 158.29102,208.894317 157.412109,208.427734 C156.750214,208.091361 156.229386,207.858074 155.849609,207.727865 C155.784505,207.706163 155.730252,207.695312 155.686849,207.695312 C155.328774,207.695312 155.06836,208.091359 154.905599,208.883464 L154.173177,208.883464 C154.259983,207.613926 154.303385,205.394981 154.303385,202.226562 L155.035807,202.226562 Z M179.596354,191.451823 L179.596354,192.119141 L175.657552,192.119141 L175.657552,205.563151 C175.657552,206.225047 175.776909,206.694335 176.015625,206.971029 C176.254341,207.247723 176.623261,207.386068 177.122396,207.386068 C178.066411,207.386068 178.820527,206.718757 179.384766,205.384115 L179.954427,205.693359 C179.118919,207.982867 177.599837,209.127604 175.397135,209.127604 C173.932284,209.127604 172.820099,208.747834 172.060547,207.988281 C171.593965,207.53255 171.276585,206.954756 171.108398,206.254883 C170.940212,205.55501 170.85612,204.586595 170.85612,203.349609 L170.85612,192.119141 L168.056641,192.119141 L168.056641,191.451823 L170.85612,191.451823 L170.85612,187.02474 C172.689896,187.02474 174.290358,186.66667 175.657552,185.950521 L175.657552,191.451823 L179.596354,191.451823 Z M187.539063,194.153646 C187.962242,193.209631 188.572587,192.441952 189.370117,191.850586 C190.167647,191.25922 191.070958,190.963542 192.080078,190.963542 C192.752825,190.963542 193.317055,191.110025 193.772786,191.402995 C194.228518,191.695965 194.564886,192.073023 194.781901,192.53418 C194.998916,192.995337 195.107422,193.491751 195.107422,194.023437 C195.107422,194.848094 194.868709,195.520831 194.391276,196.041667 C193.913843,196.562503 193.284509,196.822917 192.503255,196.822917 C191.743703,196.822917 191.144208,196.630319 190.704753,196.245117 C190.265297,195.859916 190.045573,195.3418 190.045573,194.690755 C190.045573,193.627382 190.533849,192.759335 191.510417,192.086589 C191.369357,192.054036 191.233725,192.03776 191.103516,192.03776 C190.951605,192.03776 190.777996,192.064887 190.582682,192.119141 C190.018443,192.205947 189.503041,192.474499 189.036458,192.924805 C188.569876,193.375111 188.203669,193.914927 187.937826,194.544271 C187.671982,195.173614 187.539063,195.786672 187.539063,196.383464 L187.539063,205.221354 C187.539063,206.252175 187.788626,206.965601 188.28776,207.361654 C188.786895,207.757706 189.584413,207.955729 190.680339,207.955729 L190.680339,208.655599 C187.902547,208.568793 186.133901,208.525391 185.374349,208.525391 C184.66905,208.525391 183.079439,208.568793 180.605469,208.655599 L180.605469,207.955729 C181.137155,207.955729 181.557616,207.8852 181.866862,207.744141 C182.176108,207.603081 182.398545,207.358943 182.53418,207.011719 C182.669814,206.664495 182.73763,206.181644 182.73763,205.563151 L182.73763,195.048828 C182.73763,194.018007 182.580297,193.272029 182.265625,192.810872 C181.950953,192.349716 181.397573,192.119141 180.605469,192.119141 L180.605469,191.419271 C181.310767,191.484375 181.99978,191.516927 182.672526,191.516927 C184.636512,191.516927 186.258674,191.365019 187.539063,191.061198 L187.539063,194.153646 Z M205.39388,194.593099 C205.39388,193.670785 205.174156,192.943796 204.734701,192.412109 C204.295245,191.880423 203.608946,191.614583 202.675781,191.614583 C202.241751,191.614583 201.807728,191.682399 201.373698,191.818034 C200.939668,191.953668 200.581599,192.157117 200.299479,192.428385 C200.917972,192.63455 201.400823,192.957355 201.748047,193.39681 C202.095271,193.836265 202.26888,194.386932 202.26888,195.048828 C202.26888,195.50456 202.157662,195.914169 201.935221,196.277669 C201.712781,196.641169 201.395401,196.92871 200.983073,197.140299 C200.570744,197.351889 200.098744,197.457682 199.567057,197.457682 C198.850908,197.457682 198.278539,197.213544 197.849935,196.72526 C197.42133,196.236977 197.207031,195.623919 197.207031,194.886068 C197.207031,193.735888 197.825515,192.802738 199.0625,192.086589 C200.418844,191.337887 202.111535,190.963542 204.140625,190.963542 C206.419282,190.963542 208.041445,191.462669 209.007161,192.460937 C209.473744,192.92752 209.788411,193.508026 209.951172,194.202474 C210.113933,194.896922 210.195313,195.868049 210.195313,197.115885 L210.195313,206.181641 C210.195313,206.724178 210.246853,207.106661 210.349935,207.329102 C210.453017,207.551542 210.634764,207.66276 210.895182,207.66276 C211.253257,207.66276 211.665579,207.472875 212.132161,207.093099 L212.473958,207.66276 C211.963973,208.08594 211.410593,208.395181 210.813802,208.590495 C210.217011,208.785808 209.500872,208.883464 208.665365,208.883464 C207.536887,208.883464 206.723093,208.6339 206.223958,208.134766 C205.724824,207.635631 205.47526,206.984596 205.47526,206.181641 C204.932723,207.082253 204.22201,207.757702 203.343099,208.208008 C202.464188,208.658314 201.525613,208.883464 200.527344,208.883464 C199.257806,208.883464 198.240564,208.549808 197.475586,207.882487 C196.710608,207.215166 196.328125,206.284728 196.328125,205.091146 C196.328125,203.930116 196.707896,202.969839 197.467448,202.210286 C198.227,201.450734 199.404289,200.777998 200.999349,200.192057 C201.172961,200.126953 201.737191,199.912654 202.692057,199.549154 C203.646923,199.185654 204.335935,198.814021 204.759115,198.434245 C205.182294,198.054469 205.39388,197.636721 205.39388,197.18099 L205.39388,194.593099 Z M205.39388,198.548177 C205.25282,198.786894 205.022246,199.033744 204.702148,199.288737 C204.382051,199.54373 203.923614,199.855684 203.326823,200.224609 C202.621524,200.712893 202.068144,201.26356 201.666667,201.876628 C201.265189,202.489695 201.064453,203.251949 201.064453,204.163411 C201.064453,205.031471 201.254338,205.679794 201.634115,206.108398 C202.013891,206.537003 202.513018,206.751302 203.13151,206.751302 C204.010421,206.751302 204.764537,206.295577 205.39388,205.384115 L205.39388,198.548177 Z" id="Casa-Nostra" fill="#FFFFFF"></path>
                <g id="Group" transform="translate(62.916667, 40.833333)" fill="#FFFFFF">
                    <path d="M81.0895,104.433625 C91.0153333,86.976125 82.15075,76.4065417 81.4795,75.647375 L73.6503333,66.2965417 C69.55075,61.6107083 73.7686667,54.2444583 73.812,54.1707083 L75.1790833,51.8265417 L72.4699167,51.6669583 C72.25575,51.6544583 72.0465833,51.6482083 71.84075,51.6482083 C67.3640833,51.6482083 64.8311667,54.4240417 63.6265833,56.3102917 C63.4336667,56.1077917 63.2615833,55.863625 63.1061667,55.574875 C60.96575,51.6032083 63.2515833,41.951125 64.31325,38.5669583 L66.2474167,32.3994583 L53.8528333,44.2307083 C43.0378333,54.2440417 41.5178333,65.7165417 42.1499167,73.5740417 C42.5495,78.5369583 43.81575,82.667375 44.822,85.2857083 C41.317,82.702375 38.472,73.576125 37.5153333,68.793625 L36.4553333,63.494875 L34.3465833,68.469875 C30.3403333,77.9202917 27.3145,91.572375 34.5374167,104.433625 L1.7245,104.433625 L1.7245,87.1832083 L13.6574167,87.1832083 L13.7140833,85.574875 C14.2374167,70.724875 22.0811667,57.1307083 34.69575,49.211125 L35.4761667,48.721125 L35.4761667,35.7965417 L40.6224167,28.516125 L40.6224167,1.819875 L75.4299167,1.819875 L75.4299167,28.2269583 L80.78075,35.7965417 L80.78075,48.3102917 L81.5865833,48.7965417 C94.6145,56.6569583 102.711583,70.4057083 103.246167,85.574875 L103.302833,87.1832083 L114.93325,87.1832083 L114.93325,104.433625 L81.0895,104.433625 Z" id="Fill-27"></path>
                    <path d="M75.583125,0.153 L40.469375,0.153 C39.636875,0.153 38.955625,0.83425 38.955625,1.66675 L38.955625,27.98675 L33.8097917,35.26675 L33.8097917,47.7996667 C21.1585417,55.74175 12.6089583,69.6125833 12.0485417,85.5163333 L1.57145833,85.5163333 C0.735625,85.5163333 0.0577083333,86.1938333 0.0577083333,87.0296667 L0.0577083333,104.58675 C0.0577083333,105.422583 0.735625,106.100083 1.57145833,106.100083 L37.5289583,106.100083 C32.3872917,98.53675 28.5602083,86.3905 35.8810417,69.1200833 C35.8810417,69.1200833 39.5872917,87.64925 46.6897917,87.64925 C46.9985417,87.64925 47.3135417,87.61425 47.6352083,87.5413333 C47.6352083,87.5413333 34.981875,63.97425 55.0039583,45.4363333 L62.723125,38.0675833 C62.723125,38.0675833 56.9335417,56.4888333 64.301875,58.59425 C64.301875,58.59425 66.281875,53.3150833 71.840625,53.3150833 C72.014375,53.3150833 72.1910417,53.3205 72.3722917,53.3309167 C72.3722917,53.3309167 67.4597917,61.7521667 72.3722917,67.3663333 L80.218125,76.7375833 C80.218125,76.7375833 90.1202083,87.68425 78.120625,106.100083 L115.086458,106.100083 C115.922292,106.100083 116.599792,105.422583 116.599792,104.58675 L116.599792,87.0296667 C116.599792,86.1938333 115.922292,85.5163333 115.086458,85.5163333 L104.911875,85.5163333 C104.341042,69.3200833 95.4835417,55.23425 82.4477083,47.36925 L82.4477083,35.26675 L77.0964583,27.69675 L77.0964583,1.66675 C77.0964583,0.83425 76.415625,0.153 75.583125,0.153 M73.763125,3.48633333 L73.763125,27.69675 L73.763125,28.7559167 L74.3747917,29.6209167 L79.114375,36.3259167 L79.114375,47.36925 L79.114375,49.2513333 L80.725625,50.2234167 C93.2697917,57.79175 101.066042,71.0296667 101.580625,85.6334167 L101.693958,88.8496667 L104.911875,88.8496667 L113.266458,88.8496667 L113.266458,102.76675 L83.8452083,102.76675 C87.7627083,94.7071667 87.7772917,88.1946667 86.941875,83.87925 C85.870625,78.34675 83.249375,75.1396667 82.745625,74.5638333 L74.928125,65.2263333 L74.9047917,65.198 L74.880625,65.1709167 C71.6260417,61.4513333 75.2214583,55.063 75.2514583,55.0105 L77.9864583,50.3221667 L72.568125,50.0034167 C72.3252083,49.9888333 72.0802083,49.98175 71.840625,49.98175 C68.4197917,49.98175 65.8485417,51.4000833 64.0552083,53.13675 C63.434375,49.5150833 64.6352083,43.1184167 65.903125,39.0675833 L69.7835417,26.7200833 L60.4214583,35.65675 L52.720625,43.0075833 C41.480625,53.4255 39.8464583,65.343 40.4772917,73.5600833 C39.609375,70.7284167 39.155625,68.49675 39.1497917,68.4663333 L37.0302083,57.8696667 L32.8122917,67.81925 C26.334375,83.0996667 28.101875,94.7225833 31.821875,102.76675 L3.39104167,102.76675 L3.39104167,88.8496667 L12.0485417,88.8496667 L15.2664583,88.8496667 L15.3797917,85.6334167 C15.8835417,71.3363333 23.4360417,58.248 35.581875,50.6225833 L37.143125,49.6421667 L37.143125,47.7996667 L37.143125,36.3259167 L41.6777083,29.9109167 L42.2889583,29.0459167 L42.2889583,27.98675 L42.2889583,3.48633333 L73.763125,3.48633333" id="Fill-29"></path>
                </g>
            </g>
        </g>
    </g>
</svg>